<svg width="15" height="15" viewBox="0 0 15 15" fill="none" xmlns="http://www.w3.org/2000/svg">
<path d="M9.8481 10.5138C9.56475 9.69734 8.83935 8.19584 7.2159 7.60379" stroke="white" stroke-linecap="round" stroke-linejoin="round"/>
<path d="M6.07501 5.88644C6.07501 5.88644 5.60236 8.00234 6.64351 9.13049C7.21501 9.74999 8.23021 9.77429 8.63326 8.65829C9.77791 8.34599 9.85381 7.07219 9.12421 6.64979C8.30836 6.17744 7.41601 7.03964 6.07501 5.88644Z" stroke="white" stroke-linecap="round" stroke-linejoin="round"/>
<path d="M7.5 13.5V11.3203" stroke="white" stroke-linecap="round" stroke-linejoin="round"/>
<path d="M4.08196 9.20804L2.13181 10.1827" stroke="white" stroke-linecap="round" stroke-linejoin="round"/>
<path d="M10.0557 10.3395L11.514 11.9597" stroke="white" stroke-linecap="round" stroke-linejoin="round"/>
<path d="M13.5 7.5H11.4151" stroke="white" stroke-linecap="round" stroke-linejoin="round"/>
<path d="M12.8275 10.2624L10.8922 9.25891" stroke="white" stroke-linecap="round" stroke-linejoin="round"/>
<path d="M7.50001 11.3204C9.60993 11.3204 11.3204 9.60993 11.3204 7.50001C11.3204 5.39009 9.60993 3.67966 7.50001 3.67966C5.39009 3.67966 3.67966 5.39009 3.67966 7.50001C3.67966 9.60993 5.39009 11.3204 7.50001 11.3204Z" stroke="white" stroke-linecap="round" stroke-linejoin="round"/>
<path d="M7.5 13.5C10.8137 13.5 13.5 10.8137 13.5 7.5C13.5 4.18629 10.8137 1.5 7.5 1.5C4.18629 1.5 1.5 4.18629 1.5 7.5C1.5 10.8137 4.18629 13.5 7.5 13.5Z" stroke="white" stroke-linecap="round" stroke-linejoin="round"/>
</svg>
