<svg width="140" height="138" viewBox="0 0 140 138" fill="none" xmlns="http://www.w3.org/2000/svg">
<path d="M0 0H135C137.761 0 140 2.23858 140 5V133C140 135.761 137.761 138 135 138H0V0Z" fill="#489060"/>
<path d="M140 105.542H0V105.611H140V105.542Z" fill="#EBEBEB"/>
<path d="M125.972 109.983H119.902V110.052H125.972V109.983Z" fill="#EBEBEB"/>
<path d="M96.5076 108.554H86.9568V108.623H96.5076V108.554Z" fill="#EBEBEB"/>
<path d="M123.514 107.422H111.045V107.491H123.514V107.422Z" fill="#EBEBEB"/>
<path d="M48.4456 108.813H45.3264V108.882H48.4456V108.813Z" fill="#EBEBEB"/>
<path d="M42.8316 108.813H32.0824V108.882H42.8316V108.813Z" fill="#EBEBEB"/>
<path d="M26.3228 107.648H18.5668V107.717H26.3228V107.648Z" fill="#EBEBEB"/>
<path d="M66.36 93.2328H12.2948C11.8712 93.2321 11.4653 93.0657 11.1661 92.7702C10.8669 92.4748 10.6988 92.0743 10.6988 91.6568V16.7422C10.7025 16.3271 10.8722 15.9302 11.171 15.6377C11.4698 15.3452 11.8737 15.1807 12.2948 15.18H66.36C66.784 15.18 67.1907 15.346 67.4905 15.6416C67.7904 15.9371 67.9588 16.338 67.9588 16.756V91.6568C67.9588 92.0748 67.7904 92.4757 67.4905 92.7712C67.1907 93.0668 66.784 93.2328 66.36 93.2328ZM12.2948 15.2352C11.8898 15.2359 11.5017 15.395 11.2156 15.6775C10.9295 15.9601 10.7688 16.343 10.7688 16.7422V91.6568C10.7688 92.056 10.9295 92.4389 11.2156 92.7214C11.5017 93.004 11.8898 93.1631 12.2948 93.1638H66.36C66.7652 93.1631 67.1537 93.0041 67.4402 92.7216C67.7267 92.4392 67.8881 92.0563 67.8888 91.6568V16.7422C67.8881 16.3427 67.7267 15.9598 67.4402 15.6774C67.1537 15.3949 66.7652 15.2359 66.36 15.2352H12.2948Z" fill="#EBEBEB"/>
<path d="M126.927 93.2328H72.8588C72.435 93.2321 72.0288 93.0658 71.7291 92.7704C71.4294 92.475 71.2608 92.0746 71.26 91.6568V16.7422C71.2644 16.3268 71.4347 15.9299 71.734 15.6375C72.0333 15.3451 72.4374 15.1807 72.8588 15.18H126.927C127.347 15.1814 127.751 15.3462 128.049 15.6386C128.347 15.931 128.516 16.3275 128.52 16.7422V91.6568C128.52 92.0738 128.352 92.4739 128.054 92.7692C127.755 93.0646 127.35 93.2313 126.927 93.2328ZM72.8588 15.2352C72.4536 15.2359 72.0651 15.3949 71.7786 15.6774C71.4921 15.9598 71.3307 16.3427 71.33 16.7422V91.6568C71.3307 92.0563 71.4921 92.4392 71.7786 92.7216C72.0651 93.0041 72.4536 93.1631 72.8588 93.1638H126.927C127.332 93.1631 127.72 93.0041 128.007 92.7216C128.294 92.4392 128.455 92.0563 128.456 91.6568V16.7422C128.455 16.3427 128.294 15.9598 128.007 15.6774C127.72 15.3949 127.332 15.2359 126.927 15.2352H72.8588Z" fill="#EBEBEB"/>
<path d="M32.2 48.1979C33.7528 48.1979 35.242 47.5898 36.34 46.5075C37.438 45.4252 38.0548 43.9573 38.0548 42.4267C38.0548 40.8961 37.438 39.4282 36.34 38.3459C35.242 37.2636 33.7528 36.6555 32.2 36.6555H31.4804V48.1979H32.2Z" fill="#E0E0E0"/>
<path d="M31.4748 48.1979C34.7083 48.1979 37.3296 45.614 37.3296 42.4267C37.3296 39.2394 34.7083 36.6555 31.4748 36.6555C28.2413 36.6555 25.62 39.2394 25.62 42.4267C25.62 45.614 28.2413 48.1979 31.4748 48.1979Z" fill="#F5F5F5"/>
<path d="M31.206 43.1498C29.1267 43.1498 27.1326 42.3356 25.6623 40.8863C24.192 39.4371 23.366 37.4714 23.366 35.4218V30.8099C23.366 30.6173 23.4436 30.4327 23.5817 30.2966C23.7198 30.1605 23.9071 30.084 24.1024 30.084C24.2977 30.084 24.485 30.1605 24.6231 30.2966C24.7612 30.4327 24.8388 30.6173 24.8388 30.8099V35.4246C24.8403 37.0882 25.5112 38.6833 26.7044 39.86C27.8975 41.0366 29.5155 41.6986 31.2032 41.7008C31.3036 41.6947 31.4041 41.7089 31.4987 41.7426C31.5932 41.7762 31.6798 41.8286 31.753 41.8965C31.8263 41.9643 31.8846 42.0463 31.9245 42.1372C31.9644 42.2282 31.985 42.3262 31.985 42.4253C31.985 42.5244 31.9644 42.6225 31.9245 42.7134C31.8846 42.8044 31.8263 42.8863 31.753 42.9542C31.6798 43.0221 31.5932 43.0744 31.4987 43.1081C31.4041 43.1417 31.3036 43.1559 31.2032 43.1498H31.206Z" fill="#E0E0E0"/>
<path d="M17.5924 34.8726H30.618C30.8263 34.8726 31.0319 34.8255 31.2188 34.7349C31.4057 34.6443 31.5691 34.5126 31.6962 34.3499C31.8233 34.1873 31.9109 33.998 31.9521 33.7967C31.9934 33.5954 31.9872 33.3875 31.934 33.189L30.8 28.98C30.7235 28.6941 30.5532 28.4411 30.3157 28.2604C30.0782 28.0797 29.7868 27.9814 29.4868 27.9809H18.7236C18.4233 27.9813 18.1314 28.0794 17.8935 28.2601C17.6555 28.4408 17.4847 28.6938 17.4076 28.98L16.2876 33.1835C16.2331 33.3815 16.2255 33.5892 16.2654 33.7906C16.3053 33.992 16.3917 34.1817 16.5178 34.3449C16.6439 34.5082 16.8064 34.6407 16.9927 34.7322C17.1791 34.8237 17.3843 34.8717 17.5924 34.8726Z" fill="#F5F5F5"/>
<path d="M114.878 48.1979C116.431 48.1979 117.92 47.5898 119.018 46.5075C120.116 45.4252 120.733 43.9573 120.733 42.4267C120.733 40.8961 120.116 39.4282 119.018 38.3459C117.92 37.2636 116.431 36.6555 114.878 36.6555H114.159V48.1979H114.878Z" fill="#E0E0E0"/>
<path d="M114.159 48.1979C117.392 48.1979 120.014 45.614 120.014 42.4267C120.014 39.2394 117.392 36.6555 114.159 36.6555C110.925 36.6555 108.304 39.2394 108.304 42.4267C108.304 45.614 110.925 48.1979 114.159 48.1979Z" fill="#F5F5F5"/>
<path d="M113.89 43.1498C111.811 43.1498 109.817 42.3356 108.346 40.8863C106.876 39.4371 106.05 37.4714 106.05 35.4218V30.8099C106.05 30.6173 106.128 30.4327 106.266 30.2966C106.404 30.1605 106.591 30.084 106.786 30.084C106.982 30.084 107.169 30.1605 107.307 30.2966C107.445 30.4327 107.523 30.6173 107.523 30.8099V35.4246C107.524 37.0882 108.195 38.6833 109.388 39.86C110.581 41.0366 112.199 41.6986 113.887 41.7008C113.988 41.6947 114.088 41.7089 114.183 41.7426C114.277 41.7762 114.364 41.8286 114.437 41.8965C114.51 41.9643 114.569 42.0463 114.608 42.1372C114.648 42.2282 114.669 42.3262 114.669 42.4253C114.669 42.5244 114.648 42.6225 114.608 42.7134C114.569 42.8044 114.51 42.8863 114.437 42.9542C114.364 43.0221 114.277 43.0744 114.183 43.1081C114.088 43.1417 113.988 43.1559 113.887 43.1498H113.89Z" fill="#E0E0E0"/>
<path d="M100.276 34.8726H113.302C113.51 34.8726 113.716 34.8255 113.903 34.7349C114.09 34.6443 114.253 34.5126 114.38 34.3499C114.507 34.1873 114.595 33.998 114.636 33.7967C114.677 33.5954 114.671 33.3875 114.618 33.189L113.498 28.9855C113.421 28.6996 113.251 28.4466 113.014 28.2659C112.776 28.0852 112.485 27.9869 112.185 27.9864H101.408C101.107 27.9868 100.815 28.085 100.577 28.2656C100.339 28.4463 100.169 28.6994 100.092 28.9855L98.9716 33.189C98.9181 33.3867 98.9113 33.5938 98.9517 33.7945C98.9921 33.9952 99.0786 34.184 99.2046 34.3466C99.3306 34.5092 99.4927 34.6411 99.6785 34.7323C99.8643 34.8235 100.069 34.8715 100.276 34.8726Z" fill="#F5F5F5"/>
<path d="M37.5144 87.1773H41.7732V70.9127H37.5144V87.1773Z" fill="#E6E6E6"/>
<path d="M25.97 87.1746H40.1016L42.2352 68.1389H28.1036L25.97 87.1746Z" fill="#F0F0F0"/>
<path d="M24.4384 87.1746H39.0376L41.1712 68.1389H26.5748L24.4384 87.1746Z" fill="#F5F5F5"/>
<path d="M37.982 85.6759L39.7796 69.6403H27.6276L25.83 85.6759H37.982Z" fill="white"/>
<path d="M35.4732 81.7871L35.56 81.144C36.0108 77.1199 33.4628 73.5347 30.1532 73.5347L30.0776 74.1888C29.6268 78.2101 32.1748 81.7953 35.4872 81.7953L35.4732 81.7871Z" fill="#F5F5F5"/>
<path d="M16.5452 105.542H29.1004L29.1004 87.1746H16.5452V105.542Z" fill="#E6E6E6"/>
<path d="M17.8052 105.542H16.5424V102.001H19.1296L17.8052 105.542Z" fill="#F0F0F0"/>
<path d="M51.7328 105.542H64.288V87.1746H51.7328V105.542Z" fill="#E6E6E6"/>
<path d="M16.5424 103.37H52.8332V87.1774H16.5424V103.37Z" fill="#F0F0F0"/>
<path d="M51.5704 105.542H52.8332V102.001H50.246L51.5704 105.542Z" fill="#F0F0F0"/>
<path d="M17.5224 94.7232H51.8532V88.1875H17.5224V94.7232Z" fill="#E6E6E6"/>
<path d="M32.3988 92.46H36.9768C37.9611 92.4604 38.9351 92.2628 39.8392 91.8794C40.7434 91.4959 41.5587 90.9347 42.2352 90.2299H27.1404C27.8172 90.9343 28.6325 91.4953 29.5366 91.8787C30.4407 92.2621 31.4146 92.4599 32.3988 92.46Z" fill="#F0F0F0"/>
<path d="M17.5224 102.313H51.8532V95.7775H17.5224V102.313Z" fill="#E6E6E6"/>
<path d="M32.3988 100.039H36.9768C37.9611 100.039 38.9351 99.8418 39.8392 99.4583C40.7434 99.0749 41.5587 98.5136 42.2352 97.8089H27.1404C27.8172 98.5132 28.6325 99.0742 29.5366 99.4576C30.4407 99.8411 31.4146 100.039 32.3988 100.039Z" fill="#F0F0F0"/>
<path d="M50.5344 86.4266H50.8592C50.8592 85.767 50.8592 84.0972 50.8928 80.2691C50.9516 73.3277 51.0636 72.9054 51.0636 72.9054L50.2908 76.1098C49.8008 79.6564 50.4336 83.2223 50.5344 86.4266Z" fill="#E6E6E6"/>
<path d="M49.8932 75.624C48.7732 74.3185 46.4072 73.9376 43.9768 73.6119C43.022 73.485 46.4828 75.635 48.1768 77.1613C49.4928 78.3481 50.3328 78.6765 50.6968 79.8578C50.8816 78.384 50.8508 76.7583 49.8932 75.624Z" fill="#E6E6E6"/>
<path d="M51.3688 77.9645C52.4888 76.659 54.8548 76.2809 57.2852 75.9552C58.24 75.8282 54.7652 77.9783 53.0852 79.5046C51.7692 80.6914 50.9292 81.0198 50.5652 82.2011C50.3804 80.7272 50.4 79.0906 51.3688 77.9645Z" fill="#E6E6E6"/>
<path d="M50.8928 72.588C51.7328 71.0258 53.8216 69.552 56.1764 69C57.1004 68.7819 54.0344 71.8814 52.8696 73.8824C51.9652 75.4335 50.7668 77.2607 50.5792 78.5744C50.2992 75.9855 50.0584 74.1584 50.8928 72.588Z" fill="#E6E6E6"/>
<path d="M50.792 87.1746C49.8008 87.1746 48.9804 86.6861 48.9216 86.0568L48.7564 84.9859H52.8304L52.6624 86.0568C52.6064 86.6861 51.8 87.1746 50.792 87.1746Z" fill="#F0F0F0"/>
<path d="M53.0936 85.3972H48.4932L48.3616 84.2021H53.2252L53.0936 85.3972Z" fill="#F0F0F0"/>
<path d="M47.4712 62.5747L92.33 62.5747V22.2428L47.4712 22.2428L47.4712 62.5747Z" fill="#E6E6E6"/>
<path d="M46.4632 62.5747L91.8904 62.5747V22.2428L46.4632 22.2428L46.4632 62.5747Z" fill="#F5F5F5"/>
<path d="M90.076 60.7697V24.0506L48.272 24.0506V60.7697H90.076Z" fill="#FAFAFA"/>
<path d="M84.9492 60.7697L68.4964 24.0506H62.9076L79.3604 60.7697H84.9492Z" fill="white"/>
<path d="M77.7756 60.7697L61.3228 24.0506H57.4756L73.9284 60.7697H77.7756Z" fill="white"/>
<path d="M63.7952 60.7669V24.0479H61.6336V60.7669H63.7952Z" fill="#E6E6E6"/>
<path d="M78.1648 60.7669V24.0479H76.0032V60.7669H78.1648Z" fill="#E6E6E6"/>
<path d="M63.406 61.9151V22.7065H60.6732V61.9151H63.406Z" fill="#F5F5F5"/>
<path d="M77.7756 61.9151V22.7065H75.0428V61.9151H77.7756Z" fill="#F5F5F5"/>
<path d="M48.468 60.7697V24.0506H48.2748V60.7697H48.468Z" fill="#E6E6E6"/>
<path d="M45.7016 19.9189H94.2984C94.3606 19.9196 94.42 19.9443 94.4639 19.9876C94.5079 20.0309 94.5329 20.0895 94.5336 20.1508C94.5329 20.2118 94.5078 20.27 94.4638 20.3129C94.4197 20.3558 94.3603 20.3798 94.2984 20.3798H45.7016C45.6397 20.3798 45.5803 20.3558 45.5363 20.3129C45.4923 20.27 45.4672 20.2118 45.4664 20.1508C45.4672 20.0895 45.4922 20.0309 45.5361 19.9876C45.5801 19.9443 45.6395 19.9196 45.7016 19.9189Z" fill="#E6E6E6"/>
<path d="M92.33 21.4397C92.4134 21.4389 92.4932 21.4058 92.5519 21.3474C92.6107 21.2889 92.6436 21.21 92.6436 21.1278V20.4599C92.644 20.419 92.6361 20.3786 92.6205 20.3407C92.605 20.3029 92.5819 20.2685 92.5528 20.2395C92.5236 20.2105 92.4889 20.1875 92.4507 20.1718C92.4124 20.1561 92.3714 20.148 92.33 20.148C92.2466 20.148 92.1665 20.1805 92.1073 20.2384C92.048 20.2963 92.0143 20.3749 92.0136 20.4571V21.125C92.0136 21.208 92.0469 21.2876 92.1061 21.3465C92.1654 21.4055 92.2458 21.4389 92.33 21.4397Z" fill="#E6E6E6"/>
<path d="M49.224 21.4397C49.3077 21.439 49.3878 21.4059 49.4469 21.3475C49.5061 21.2892 49.5397 21.2103 49.5404 21.1278V20.4599C49.5404 20.3772 49.5071 20.2978 49.4477 20.2393C49.3884 20.1809 49.3079 20.148 49.224 20.148C49.1408 20.148 49.0611 20.1806 49.0023 20.2385C48.9435 20.2965 48.9104 20.3751 48.9104 20.4571V21.125C48.91 21.166 48.9179 21.2066 48.9334 21.2446C48.949 21.2826 48.972 21.3172 49.0011 21.3464C49.0302 21.3756 49.0649 21.3989 49.1031 21.4149C49.1414 21.4309 49.1825 21.4393 49.224 21.4397Z" fill="#E6E6E6"/>
<path opacity="0.6" d="M45.7744 51.7334L91.1708 51.7334V20.148L45.7744 20.148L45.7744 51.7334Z" fill="#E0E0E0"/>
<path d="M95.2812 71.7517H87.4524C86.6204 71.7517 85.946 72.4165 85.946 73.2366V76.808C85.946 77.6281 86.6204 78.2929 87.4524 78.2929H95.2812C96.1131 78.2929 96.7876 77.6281 96.7876 76.808V73.2366C96.7876 72.4165 96.1131 71.7517 95.2812 71.7517Z" fill="#FAFAFA"/>
<path d="M96.2808 70.5428H86.4528C86.1729 70.5428 85.946 70.7665 85.946 71.0424V71.4453C85.946 71.7212 86.1729 71.9449 86.4528 71.9449H96.2808C96.5607 71.9449 96.7876 71.7212 96.7876 71.4453V71.0424C96.7876 70.7665 96.5607 70.5428 96.2808 70.5428Z" fill="#E6E6E6"/>
<path d="M86.1056 85.56C86.1056 85.56 86.2484 90.1609 91.686 90.1609C97.1236 90.1609 97.2664 85.56 97.2664 85.56H86.1056Z" fill="#F0F0F0"/>
<path d="M98.504 85.56C98.504 85.56 98.6468 90.1609 104.084 90.1609C109.522 90.1609 109.665 85.56 109.665 85.56H98.504Z" fill="#F0F0F0"/>
<path d="M106.971 68.7902H96.2192C95.0749 68.7902 94.1472 69.7047 94.1472 70.8326V76.2533C94.1472 77.3813 95.0749 78.2957 96.2192 78.2957H106.971C108.116 78.2957 109.043 77.3813 109.043 76.2533V70.8326C109.043 69.7047 108.116 68.7902 106.971 68.7902Z" fill="#F0F0F0"/>
<path d="M108.349 67.1287H94.8416C94.4581 67.1287 94.1472 67.4352 94.1472 67.8132V68.3707C94.1472 68.7487 94.4581 69.0552 94.8416 69.0552H108.349C108.732 69.0552 109.043 68.7487 109.043 68.3707V67.8132C109.043 67.4352 108.732 67.1287 108.349 67.1287Z" fill="#F5F5F5"/>
<path d="M82.0092 105.542H83.4204V82.7337H82.0092V105.542Z" fill="#E6E6E6"/>
<path d="M122.758 78.2929H115.116V82.731H122.758V78.2929Z" fill="#E6E6E6"/>
<path d="M77.1232 82.7337H115.114V78.2957H77.1232V82.7337Z" fill="#F5F5F5"/>
<path d="M122.758 90.1471H115.116V94.5852H122.758V90.1471Z" fill="#E6E6E6"/>
<path d="M77.1232 94.5852H115.114V90.1471H77.1232V94.5852Z" fill="#F5F5F5"/>
<path d="M120 105.542H121.411V82.7337H120V105.542Z" fill="#E6E6E6"/>
<path d="M113.705 105.542H115.116V82.7337H113.705V105.542Z" fill="#F5F5F5"/>
<path d="M77.1232 105.542H78.5344V82.7337H77.1232V105.542Z" fill="#F5F5F5"/>
<path d="M70 118.007C99.9831 118.007 124.289 116.608 124.289 114.882C124.289 113.157 99.9831 111.758 70 111.758C40.0169 111.758 15.7108 113.157 15.7108 114.882C15.7108 116.608 40.0169 118.007 70 118.007Z" fill="#F5F5F5"/>
<path d="M72.9148 100.878H37.1952C36.6208 100.87 36.0707 100.648 35.6553 100.257C35.2399 99.866 34.9898 99.3346 34.9552 98.7694L31.752 37.6216C31.7343 37.3496 31.7737 37.0769 31.8678 36.8206C31.962 36.5644 32.1088 36.33 32.2991 36.1323C32.4895 35.9346 32.7192 35.7778 32.9739 35.6717C33.2285 35.5656 33.5027 35.5125 33.7792 35.5157H69.4988C70.0729 35.523 70.623 35.7442 71.0385 36.1349C71.454 36.5255 71.7042 37.0566 71.7388 37.6216L74.9364 98.7694C74.9541 99.041 74.9148 99.3134 74.8211 99.5694C74.7273 99.8254 74.581 100.06 74.3913 100.257C74.2016 100.455 73.9726 100.613 73.7186 100.719C73.4646 100.826 73.191 100.88 72.9148 100.878Z" fill="#92E3A9"/>
<path opacity="0.8" d="M72.9148 100.878H37.1952C36.6208 100.87 36.0707 100.648 35.6553 100.257C35.2399 99.866 34.9898 99.3346 34.9552 98.7694L31.752 37.6216C31.7343 37.3496 31.7737 37.0769 31.8678 36.8206C31.962 36.5644 32.1088 36.33 32.2991 36.1323C32.4895 35.9346 32.7192 35.7778 32.9739 35.6717C33.2285 35.5656 33.5027 35.5125 33.7792 35.5157H69.4988C70.0729 35.523 70.623 35.7442 71.0385 36.1349C71.454 36.5255 71.7042 37.0566 71.7388 37.6216L74.9364 98.7694C74.9541 99.041 74.9148 99.3134 74.8211 99.5694C74.7273 99.8254 74.581 100.06 74.3913 100.257C74.2016 100.455 73.9726 100.613 73.7186 100.719C73.4646 100.826 73.191 100.88 72.9148 100.878Z" fill="white"/>
<path d="M65.9736 33.523H62.0228V33.799H65.9736V33.523Z" fill="#92E3A9"/>
<path d="M60.6536 33.523H59.206V33.799H60.6536V33.523Z" fill="#92E3A9"/>
<path d="M74.452 96.9974H40.292C39.7419 96.9922 39.2142 96.7817 38.8152 96.4084C38.4162 96.0351 38.1755 95.5266 38.1416 94.9854L35.084 36.501C35.067 36.2407 35.1047 35.9797 35.1949 35.7345C35.285 35.4893 35.4256 35.265 35.6078 35.0759C35.7899 34.8867 36.0098 34.7367 36.2536 34.6352C36.4974 34.5337 36.7598 34.483 37.0244 34.4862H71.1844C71.7344 34.4922 72.2618 34.7033 72.6603 35.0772C73.0587 35.451 73.2987 35.9597 73.332 36.501L76.3896 94.9854C76.4066 95.2453 76.3689 95.5059 76.2789 95.7508C76.1889 95.9957 76.0486 96.2197 75.8666 96.4086C75.6847 96.5975 75.4651 96.7473 75.2217 96.8487C74.9783 96.95 74.7162 97.0006 74.452 96.9974Z" fill="#92E3A9"/>
<path d="M74.452 95.6533H40.292C40.0917 95.6465 39.9009 95.5674 39.7558 95.4311C39.6108 95.2947 39.5216 95.1106 39.5052 94.9136L36.4448 36.432C36.4379 36.3542 36.4478 36.2759 36.4739 36.2021C36.4999 36.1284 36.5416 36.0609 36.596 36.0042C36.6507 35.9476 36.7168 35.9031 36.7902 35.8736C36.8636 35.8441 36.9424 35.8303 37.0216 35.8331H71.1816C71.3815 35.8405 71.5716 35.9199 71.7161 36.0562C71.8606 36.1925 71.9493 36.3763 71.9656 36.5728L75.04 95.0544C75.0468 95.1319 75.0368 95.21 75.0108 95.2834C74.9848 95.3569 74.9434 95.4241 74.8892 95.4806C74.835 95.5372 74.7692 95.5818 74.6963 95.6116C74.6234 95.6413 74.5449 95.6556 74.466 95.6533H74.452ZM37.0216 35.9021C36.952 35.8999 36.8827 35.912 36.8181 35.9376C36.7535 35.9633 36.695 36.0019 36.6464 36.0511C36.5997 36.1021 36.5639 36.1619 36.5413 36.2269C36.5187 36.2919 36.5097 36.3607 36.5148 36.4292L39.5724 94.9109C39.588 95.09 39.6695 95.2573 39.8015 95.3814C39.9335 95.5054 40.107 95.5776 40.2892 95.5843H74.4492C74.5185 95.587 74.5875 95.5751 74.6518 95.5494C74.716 95.5237 74.7739 95.4848 74.8216 95.4353C74.8695 95.3851 74.906 95.3254 74.9287 95.2602C74.9514 95.195 74.9598 95.1258 74.9532 95.0572L71.8984 36.5755C71.8835 36.3966 71.8026 36.2294 71.6711 36.1053C71.5395 35.9812 71.3664 35.9089 71.1844 35.9021H37.0216Z" fill="white"/>
<path opacity="0.3" d="M62.5035 57.1474C66.3888 53.2174 66.1358 46.7629 61.9384 42.731C57.741 38.699 51.1886 38.6164 47.3033 42.5464C43.418 46.4765 43.671 52.9309 47.8684 56.9629C52.0658 60.9948 58.6182 61.0774 62.5035 57.1474Z" fill="white"/>
<path d="M63.28 49.8484C63.3584 51.2047 63.0816 52.5581 62.4764 53.7786C61.8212 55.0877 60.8042 56.1877 59.5425 56.9519C58.2807 57.7161 56.8256 58.1134 55.3448 58.098C53.8102 58.0844 52.3053 57.6794 50.9766 56.9225C49.6479 56.1655 48.5405 55.0825 47.7624 53.7786C47.0372 52.5863 46.6199 51.2367 46.5472 49.8484C46.4782 48.7836 46.6328 47.7163 47.0015 46.7132C47.3701 45.7101 47.9449 44.7927 48.6897 44.0186C49.4346 43.2445 50.3335 42.6303 51.3303 42.2144C52.327 41.7985 53.4001 41.5898 54.4824 41.6015C56.735 41.6246 58.8951 42.4883 60.5275 44.0185C62.1599 45.5488 63.1434 47.6319 63.28 49.8484Z" fill="white"/>
<path d="M62.468 53.7786C61.8129 55.0877 60.7958 56.1878 59.5341 56.952C58.2723 57.7162 56.8172 58.1134 55.3364 58.098C53.8018 58.0844 52.2969 57.6794 50.9682 56.9225C49.6395 56.1656 48.5322 55.0825 47.754 53.7786C49.8818 52.3301 52.409 51.5595 54.9948 51.5706C57.6498 51.5805 60.2453 52.3473 62.468 53.7786Z" fill="#92E3A9"/>
<path d="M57.4972 49.6566C58.897 48.2407 58.8054 45.9148 57.2925 44.4616C55.7797 43.0084 53.4185 42.9782 52.0187 44.3941C50.6189 45.81 50.7106 48.1359 52.2234 49.5891C53.7363 51.0423 56.0974 51.0725 57.4972 49.6566Z" fill="#92E3A9"/>
<path d="M69.5548 74.244H42.8064C42.5734 74.2416 42.35 74.1523 42.1812 73.9941C42.0123 73.8359 41.9106 73.6204 41.8964 73.3912L41.6948 69.5272C41.6879 69.4173 41.704 69.3071 41.7422 69.2036C41.7804 69.1001 41.8399 69.0056 41.9169 68.9258C41.9939 68.846 42.0868 68.7827 42.1898 68.7399C42.2927 68.6971 42.4035 68.6757 42.5152 68.6771H69.2636C69.4961 68.6794 69.7192 68.7683 69.8879 68.926C70.0567 69.0837 70.1588 69.2984 70.1736 69.5272L70.3752 73.3912C70.3826 73.5013 70.3667 73.6118 70.3287 73.7156C70.2906 73.8194 70.2312 73.9143 70.1542 73.9944C70.0771 74.0745 69.9841 74.138 69.881 74.181C69.7778 74.2239 69.6668 74.2454 69.5548 74.244Z" fill="white"/>
<path opacity="0.3" d="M61.3648 66.5436H50.1928C49.9589 66.5419 49.7344 66.4525 49.5649 66.2936C49.3954 66.1347 49.2935 65.9182 49.28 65.688L49.238 64.86C49.2307 64.7499 49.2465 64.6394 49.2846 64.5356C49.3226 64.4318 49.382 64.3369 49.459 64.2568C49.5361 64.1767 49.6291 64.1131 49.7323 64.0702C49.8354 64.0272 49.9464 64.0058 50.0584 64.0072H61.2276C61.4606 64.0095 61.684 64.0988 61.8529 64.2571C62.0217 64.4153 62.1235 64.6308 62.1376 64.86L62.1824 65.688C62.1893 65.7979 62.1733 65.9081 62.1353 66.0117C62.0973 66.1153 62.0381 66.2101 61.9615 66.2903C61.8849 66.3704 61.7924 66.4343 61.6898 66.4779C61.5872 66.5214 61.4766 66.5438 61.3648 66.5436Z" fill="black"/>
<path opacity="0.3" d="M65.52 92.8216H48.7844C48.3881 92.8167 48.0083 92.6645 47.7212 92.3952C47.434 92.126 47.2607 91.7597 47.236 91.3698L47.138 89.4654C47.1281 89.2782 47.157 89.091 47.2229 88.9152C47.2888 88.7394 47.3904 88.5787 47.5214 88.4429C47.6524 88.307 47.8101 88.1989 47.9849 88.1251C48.1597 88.0513 48.3479 88.0134 48.538 88.0136H65.268C65.6643 88.0185 66.0441 88.1707 66.3312 88.44C66.6184 88.7092 66.7917 89.0755 66.8164 89.4654L66.9144 91.3698C66.9243 91.5565 66.8955 91.7432 66.83 91.9187C66.7644 92.0941 66.6633 92.2546 66.5329 92.3903C66.4025 92.5261 66.2455 92.6343 66.0714 92.7085C65.8973 92.7826 65.7097 92.8211 65.52 92.8216Z" fill="black"/>
<path d="M70.0448 83.5894H43.2936C43.0608 83.5863 42.8378 83.4968 42.669 83.3387C42.5003 83.1806 42.3984 82.9655 42.3836 82.7365L42.182 78.8725C42.1751 78.7625 42.1912 78.6522 42.2294 78.5486C42.2676 78.445 42.327 78.3502 42.404 78.2702C42.4809 78.1902 42.5738 78.1267 42.6767 78.0836C42.7797 78.0405 42.8905 78.0187 43.0024 78.0197H69.7508C69.9838 78.0221 70.2072 78.1114 70.376 78.2696C70.5449 78.4278 70.6466 78.6433 70.6608 78.8725L70.8652 82.7365C70.8717 82.8465 70.8553 82.9566 70.8169 83.06C70.7786 83.1635 70.7191 83.2581 70.6423 83.338C70.5654 83.4179 70.4727 83.4814 70.3699 83.5247C70.2672 83.5679 70.1565 83.5899 70.0448 83.5894Z" fill="white"/>
<path d="M46.2 71.4592C46.2077 71.5811 46.1898 71.7033 46.1475 71.8182C46.1051 71.933 46.0391 72.038 45.9537 72.1266C45.8683 72.2152 45.7653 72.2855 45.6511 72.333C45.5369 72.3806 45.414 72.4045 45.29 72.4031C45.0325 72.4001 44.7857 72.301 44.5992 72.1259C44.4127 71.9508 44.3004 71.7126 44.2848 71.4592C44.2767 71.3373 44.2942 71.2152 44.3363 71.1003C44.3783 70.9855 44.444 70.8805 44.5292 70.7918C44.6144 70.7032 44.7172 70.6329 44.8313 70.5853C44.9454 70.5377 45.0682 70.5138 45.192 70.5152C45.4499 70.5182 45.697 70.6172 45.884 70.7922C46.0709 70.9673 46.1838 71.2055 46.2 71.4592Z" fill="#263238"/>
<path d="M49.1484 71.4592C49.1565 71.581 49.139 71.7032 49.0969 71.818C49.0549 71.9328 48.9892 72.0379 48.904 72.1265C48.8188 72.2151 48.716 72.2854 48.6019 72.333C48.4879 72.3806 48.3651 72.4045 48.2412 72.4031C47.9835 72.4007 47.7363 72.3019 47.5496 72.1266C47.363 71.9514 47.2509 71.7128 47.236 71.4592C47.2279 71.3373 47.2454 71.2152 47.2875 71.1003C47.3295 70.9855 47.3952 70.8805 47.4804 70.7918C47.5656 70.7032 47.6684 70.6329 47.7825 70.5853C47.8965 70.5377 48.0193 70.5138 48.1432 70.5152C48.4009 70.5176 48.6481 70.6164 48.8348 70.7917C49.0214 70.9669 49.1335 71.2055 49.1484 71.4592Z" fill="#263238"/>
<path d="M52.08 71.4592C52.0881 71.581 52.0706 71.7032 52.0286 71.818C51.9865 71.9328 51.9208 72.0379 51.8356 72.1265C51.7505 72.2151 51.6476 72.2855 51.5336 72.3331C51.4195 72.3806 51.2967 72.4045 51.1728 72.4031C50.915 72.4001 50.6678 72.3012 50.4809 72.1261C50.294 71.9511 50.1811 71.7128 50.1648 71.4592C50.1571 71.3372 50.175 71.215 50.2174 71.1001C50.2598 70.9853 50.3257 70.8803 50.4111 70.7917C50.4965 70.7031 50.5995 70.6329 50.7137 70.5853C50.8279 70.5377 50.9509 70.5139 51.0748 70.5153C51.3324 70.5183 51.5792 70.6173 51.7657 70.7924C51.9522 70.9675 52.0645 71.2058 52.08 71.4592Z" fill="#263238"/>
<path d="M55.034 71.4592C55.0417 71.5809 55.0239 71.7029 54.9817 71.8175C54.9395 71.9322 54.8738 72.0371 54.7887 72.1256C54.7036 72.2141 54.6009 72.2845 54.487 72.3322C54.3732 72.38 54.2505 72.4041 54.1268 72.4031C53.869 72.4001 53.6218 72.3012 53.4349 72.1261C53.2479 71.9511 53.135 71.7128 53.1188 71.4592C53.1111 71.3374 53.1289 71.2154 53.1711 71.1008C53.2133 70.9861 53.279 70.8813 53.3641 70.7927C53.4492 70.7042 53.5519 70.6338 53.6658 70.5861C53.7797 70.5384 53.9023 70.5142 54.026 70.5152C54.2838 70.5182 54.531 70.6172 54.7179 70.7922C54.9049 70.9673 55.0178 71.2055 55.034 71.4592Z" fill="#263238"/>
<path d="M46.6956 80.799C46.7037 80.9208 46.6862 81.043 46.6442 81.1578C46.6021 81.2727 46.5364 81.3777 46.4512 81.4663C46.3661 81.555 46.2632 81.6253 46.1492 81.6729C46.0351 81.7205 45.9123 81.7443 45.7884 81.7429C45.5306 81.74 45.2834 81.641 45.0965 81.466C44.9096 81.2909 44.7967 81.0527 44.7804 80.799C44.7727 80.677 44.7906 80.5548 44.833 80.44C44.8754 80.3251 44.9413 80.2201 45.0267 80.1315C45.1121 80.043 45.2151 79.9727 45.3293 79.9251C45.4435 79.8776 45.5665 79.8537 45.6904 79.8551C45.948 79.8581 46.1948 79.9571 46.3813 80.1323C46.5678 80.3074 46.6801 80.5456 46.6956 80.799Z" fill="#263238"/>
<path d="M49.6384 80.799C49.6461 80.9207 49.6283 81.0427 49.586 81.1574C49.5438 81.272 49.4781 81.3769 49.393 81.4654C49.3079 81.554 49.2053 81.6243 49.0914 81.6721C48.9775 81.7198 48.8549 81.7439 48.7312 81.7429C48.4733 81.74 48.2262 81.641 48.0393 81.466C47.8523 81.2909 47.7394 81.0527 47.7232 80.799C47.7151 80.6772 47.7326 80.555 47.7746 80.4402C47.8167 80.3253 47.8824 80.2203 47.9676 80.1317C48.0528 80.043 48.1556 79.9727 48.2697 79.9251C48.3837 79.8775 48.5065 79.8537 48.6304 79.8551C48.8882 79.8581 49.1354 79.957 49.3223 80.1321C49.5092 80.3071 49.6222 80.5453 49.6384 80.799Z" fill="#263238"/>
<path d="M52.5812 80.799C52.5889 80.921 52.571 81.0432 52.5286 81.158C52.4863 81.2729 52.4203 81.3779 52.3349 81.4665C52.2495 81.5551 52.1465 81.6253 52.0323 81.6729C51.9181 81.7205 51.7952 81.7443 51.6712 81.7429C51.4134 81.7406 51.1662 81.6417 50.9796 81.4665C50.793 81.2912 50.6809 81.0527 50.666 80.799C50.6579 80.6772 50.6754 80.555 50.7175 80.4402C50.7595 80.3253 50.8252 80.2203 50.9104 80.1317C50.9956 80.043 51.0984 79.9727 51.2125 79.9251C51.3265 79.8775 51.4493 79.8537 51.5732 79.8551C51.831 79.8581 52.0782 79.957 52.2651 80.1321C52.4521 80.3071 52.565 80.5453 52.5812 80.799Z" fill="#263238"/>
<path d="M55.5212 80.799C55.5293 80.9208 55.5118 81.043 55.4697 81.1578C55.4277 81.2727 55.362 81.3777 55.2768 81.4663C55.1916 81.555 55.0888 81.6253 54.9747 81.6729C54.8607 81.7205 54.7378 81.7443 54.614 81.7429C54.3562 81.74 54.109 81.641 53.9221 81.466C53.7351 81.2909 53.6222 81.0527 53.606 80.799C53.5983 80.677 53.6162 80.5548 53.6586 80.44C53.7009 80.3251 53.7669 80.2201 53.8523 80.1315C53.9377 80.043 54.0407 79.9727 54.1549 79.9251C54.2691 79.8776 54.392 79.8537 54.516 79.8551C54.7737 79.8575 55.0209 79.9563 55.2076 80.1315C55.3942 80.3068 55.5063 80.5454 55.5212 80.799Z" fill="#263238"/>
<path d="M58.464 80.799C58.4721 80.9208 58.4546 81.043 58.4125 81.1578C58.3705 81.2727 58.3048 81.3777 58.2196 81.4663C58.1344 81.555 58.0316 81.6253 57.9175 81.6729C57.8035 81.7205 57.6807 81.7443 57.5568 81.7429C57.299 81.74 57.0518 81.641 56.8649 81.466C56.6779 81.2909 56.565 81.0527 56.5488 80.799C56.5411 80.6773 56.5589 80.5553 56.6011 80.4406C56.6433 80.326 56.709 80.2211 56.7941 80.1326C56.8792 80.044 56.9819 79.9737 57.0958 79.926C57.2096 79.8782 57.3323 79.8541 57.456 79.8551C57.7138 79.8581 57.961 79.957 58.1479 80.1321C58.3349 80.3071 58.4478 80.5453 58.464 80.799Z" fill="#263238"/>
<path d="M61.4068 80.799C61.4145 80.921 61.3966 81.0432 61.3543 81.158C61.3119 81.2729 61.2459 81.3779 61.1605 81.4665C61.0751 81.5551 60.9721 81.6253 60.8579 81.6729C60.7437 81.7205 60.6208 81.7443 60.4968 81.7429C60.2393 81.7399 59.9924 81.6409 59.806 81.4658C59.6195 81.2906 59.5072 81.0524 59.4916 80.799C59.4835 80.6772 59.501 80.555 59.5431 80.4402C59.5851 80.3253 59.6508 80.2203 59.736 80.1317C59.8212 80.043 59.924 79.9727 60.0381 79.9251C60.1522 79.8775 60.275 79.8537 60.3988 79.8551C60.6566 79.8581 60.9038 79.957 61.0907 80.1321C61.2777 80.3071 61.3906 80.5453 61.4068 80.799Z" fill="#263238"/>
<path d="M93.24 48.7471C93.31 48.852 93.3464 48.9072 93.3912 48.9817L93.5172 49.186C93.5984 49.324 93.6712 49.462 93.7412 49.5972C93.8812 49.8732 94.0212 50.1492 94.1332 50.4252C94.368 50.9734 94.5699 51.5346 94.738 52.1061C95.077 53.2349 95.3003 54.3943 95.4044 55.5671L95.424 55.7851C95.4264 55.8293 95.4264 55.8735 95.424 55.9176V56.0639C95.4287 56.2558 95.4174 56.4478 95.3904 56.638C95.3367 56.9904 95.2428 57.3358 95.1104 57.6675C94.8644 58.2599 94.5386 58.8169 94.1416 59.3235C93.4012 60.2581 92.5224 61.0778 91.5348 61.755L90.762 60.8635C91.4652 60.0807 92.088 59.231 92.6212 58.3271C92.8612 57.917 93.0492 57.4795 93.1812 57.0244C93.2347 56.8316 93.2657 56.6334 93.2736 56.4337C93.2823 56.3484 93.2823 56.2624 93.2736 56.1771V56.1191C93.2764 56.0934 93.2764 56.0675 93.2736 56.0418L93.24 55.8486C93.06 54.82 92.8054 53.8054 92.4784 52.8126C92.316 52.3186 92.1172 51.8411 91.9184 51.3747C91.8204 51.1401 91.7084 50.911 91.5964 50.6902L91.4228 50.3645L91.336 50.2127L91.2632 50.0913L93.24 48.7471Z" fill="#803E3C"/>
<path d="M90.636 61.7605L91.6496 63.8719L92.4532 62.0862C92.4532 62.0862 91.7392 60.5406 90.7732 60.6841L90.636 61.7605Z" fill="#7F3E3B"/>
<path d="M92.3748 63.9768L93.1812 62.6741L92.4532 62.0862L91.6496 63.8719L92.3748 63.9768Z" fill="#7F3E3B"/>
<path d="M87.8164 112.669C88.0261 112.664 88.2345 112.636 88.438 112.586C88.4483 112.583 88.4576 112.577 88.465 112.569C88.4724 112.562 88.4776 112.552 88.48 112.542C88.4817 112.531 88.4803 112.52 88.4758 112.51C88.4713 112.501 88.464 112.492 88.4548 112.487C88.3736 112.434 87.6624 111.981 87.388 112.103C87.3576 112.117 87.3315 112.139 87.3123 112.166C87.2931 112.193 87.2816 112.225 87.2788 112.257C87.2703 112.307 87.2743 112.359 87.2904 112.407C87.3065 112.455 87.3343 112.498 87.3712 112.533C87.4982 112.63 87.6563 112.678 87.8164 112.669ZM88.2784 112.506C87.8724 112.589 87.5644 112.575 87.4384 112.467C87.4127 112.442 87.3938 112.411 87.3836 112.377C87.3733 112.342 87.3719 112.306 87.3796 112.271C87.3796 112.224 87.4076 112.211 87.4272 112.202C87.5784 112.136 87.99 112.332 88.2784 112.506Z" fill="#92E3A9"/>
<path d="M88.424 112.586H88.452C88.4604 112.581 88.4674 112.573 88.4723 112.565C88.4771 112.556 88.4798 112.546 88.48 112.536C88.48 112.509 88.48 111.843 88.2224 111.62C88.1908 111.592 88.1534 111.571 88.1128 111.559C88.0722 111.546 88.0293 111.543 87.9872 111.548C87.943 111.549 87.9003 111.564 87.8662 111.591C87.8321 111.619 87.8086 111.657 87.7996 111.7C87.7464 111.962 88.172 112.459 88.396 112.586H88.424ZM88.0236 111.65C88.0463 111.65 88.0688 111.653 88.09 111.662C88.1111 111.67 88.1305 111.682 88.1468 111.697C88.2945 111.912 88.3708 112.167 88.3652 112.426C88.1412 112.249 87.8752 111.874 87.9088 111.717C87.9088 111.692 87.9284 111.659 87.9984 111.65H88.0236Z" fill="#92E3A9"/>
<path d="M85.1732 111.543C85.1798 111.535 85.1841 111.525 85.1856 111.515C85.187 111.504 85.1857 111.494 85.1817 111.484C85.1777 111.475 85.1712 111.466 85.1628 111.46C85.1544 111.454 85.1445 111.45 85.134 111.449C85.0192 111.449 84.014 111.402 83.7844 111.645V111.661C83.7654 111.685 83.7531 111.714 83.7487 111.744C83.7443 111.774 83.7479 111.804 83.7592 111.832C83.7742 111.88 83.8006 111.923 83.8362 111.958C83.8718 111.993 83.9155 112.019 83.9636 112.034C84.2884 112.133 84.8624 111.772 85.176 111.548L85.1732 111.543ZM83.8684 111.717C83.9944 111.584 84.5488 111.548 84.9632 111.554C84.5292 111.846 84.168 111.984 83.986 111.929C83.9543 111.92 83.9254 111.903 83.902 111.879C83.8785 111.856 83.8612 111.828 83.8516 111.797C83.846 111.786 83.843 111.774 83.843 111.762C83.843 111.75 83.846 111.738 83.8516 111.728L83.8684 111.717Z" fill="#92E3A9"/>
<path d="M85.1732 111.543C85.1775 111.534 85.1797 111.525 85.1797 111.515C85.1797 111.505 85.1775 111.496 85.1732 111.487C85.1592 111.465 84.8456 110.935 84.476 110.825C84.423 110.81 84.3673 110.805 84.3124 110.812C84.2575 110.819 84.2046 110.836 84.1568 110.864C84.0224 110.941 84.014 111.032 84.0308 111.09C84.1036 111.347 84.8176 111.573 85.1256 111.57C85.1353 111.57 85.1448 111.567 85.1531 111.563C85.1615 111.558 85.1684 111.551 85.1732 111.543ZM84.168 110.991C84.1838 110.975 84.2018 110.962 84.2212 110.952C84.2558 110.93 84.2948 110.916 84.3354 110.911C84.3761 110.906 84.4174 110.909 84.4564 110.922C84.7 110.985 84.9268 111.294 85.0304 111.446C84.6972 111.41 84.1904 111.209 84.1484 111.054C84.1449 111.042 84.1448 111.03 84.1483 111.018C84.1518 111.006 84.1586 110.996 84.168 110.988V110.991Z" fill="#92E3A9"/>
<path d="M88.256 40.6631C87.976 42.0431 87.3712 45.0266 88.3428 45.943C88.3428 45.943 87.962 47.323 85.3776 47.323C82.5328 47.323 84.0196 45.943 84.0196 45.943C85.5708 45.5786 85.5316 44.4415 85.26 43.3762L88.256 40.6631Z" fill="#7F3E3B"/>
<path d="M83.5184 37.4284C83.5342 37.4309 83.5502 37.4309 83.566 37.4284C83.5793 37.4219 83.5912 37.4129 83.6009 37.4019C83.6107 37.3909 83.6181 37.3781 83.6228 37.3642C83.6275 37.3504 83.6293 37.3357 83.6282 37.3212C83.6271 37.3066 83.6231 37.2924 83.6164 37.2793C83.5411 37.1219 83.4286 36.9846 83.2882 36.8789C83.1479 36.7733 82.9839 36.7023 82.81 36.6721C82.7808 36.6697 82.7519 36.6784 82.729 36.6963C82.7061 36.7143 82.691 36.7402 82.6868 36.7687C82.6836 36.7976 82.6922 36.8266 82.7105 36.8493C82.7289 36.872 82.7555 36.8867 82.7848 36.8902C82.9221 36.9162 83.0511 36.974 83.1612 37.059C83.2712 37.1439 83.3591 37.2535 83.4176 37.3787C83.4285 37.395 83.4435 37.4082 83.4612 37.4169C83.4789 37.4257 83.4986 37.4296 83.5184 37.4284Z" fill="#263238"/>
<path d="M82.67 38.64C82.4496 39.0429 82.1745 39.4143 81.8524 39.744C81.9396 39.8227 82.0431 39.8817 82.1558 39.9169C82.2685 39.9522 82.3876 39.9629 82.5048 39.9483L82.67 38.64Z" fill="#630F0F"/>
<path d="M82.88 38.3281C82.8576 38.5131 82.7372 38.6511 82.6168 38.6373C82.4964 38.6235 82.4124 38.4606 82.4348 38.2757C82.4572 38.0908 82.5776 37.9528 82.7148 37.9666C82.852 37.9804 82.8996 38.1432 82.88 38.3281Z" fill="#263238"/>
<path d="M82.7512 37.9831L82.32 37.812C82.32 37.812 82.502 38.1763 82.7512 37.9831Z" fill="#263238"/>
<path d="M87.6456 111.018L85.3608 111.543L83.972 106.365L86.2568 105.84L87.6456 111.018Z" fill="#7F3E3B"/>
<path d="M91.1512 112.531H88.8076L88.9896 107.179H91.336L91.1512 112.531Z" fill="#7F3E3B"/>
<path d="M88.62 112.263H91.2548C91.3005 112.263 91.3447 112.279 91.3793 112.308C91.4138 112.338 91.4363 112.378 91.4424 112.423L91.742 114.477C91.7479 114.528 91.7426 114.581 91.7265 114.631C91.7103 114.681 91.6836 114.726 91.6481 114.765C91.6127 114.804 91.5693 114.835 91.5208 114.856C91.4723 114.877 91.4198 114.888 91.3668 114.888C90.4484 114.874 90.006 114.819 88.8468 114.819C88.1328 114.819 87.0912 114.893 86.1084 114.893C85.1256 114.893 85.0696 113.933 85.4812 113.847C87.318 113.455 87.6092 112.92 88.228 112.407C88.3373 112.314 88.4762 112.264 88.62 112.263Z" fill="#263238"/>
<path d="M85.1592 111.198L87.5532 110.113C87.5939 110.094 87.6402 110.09 87.6835 110.102C87.7268 110.114 87.7641 110.142 87.7884 110.179L88.9336 111.924C88.9603 111.968 88.9773 112.018 88.9832 112.07C88.9892 112.122 88.9841 112.174 88.9683 112.224C88.9524 112.274 88.9262 112.319 88.8913 112.358C88.8564 112.398 88.8136 112.429 88.7656 112.451C87.9256 112.815 87.5 112.95 86.4472 113.428C85.8004 113.72 84.4872 114.394 83.5968 114.808C82.7064 115.222 82.2472 114.363 82.5832 114.115C84.0868 113.011 84.518 112.219 84.8624 111.498C84.9206 111.366 85.0263 111.259 85.1592 111.198Z" fill="#263238"/>
<path opacity="0.2" d="M83.972 106.365L84.7168 109.141L86.9736 108.509L86.2596 105.84L83.972 106.365Z" fill="black"/>
<path opacity="0.2" d="M91.336 107.179H88.9896L88.8972 109.939H91.2436L91.336 107.179Z" fill="black"/>
<path d="M92.4 46.4674C93.3744 46.6799 94.416 50.1326 94.416 50.1326L91.6608 53.0224C91.6608 53.0224 89.3732 49.7766 89.8408 48.5843C90.314 47.3395 91.238 46.219 92.4 46.4674Z" fill="#263238"/>
<path opacity="0.4" d="M90.8432 48.6671C90.3504 48.2227 90.0172 48.3552 89.7904 48.7085C89.5664 49.7352 90.8936 51.8853 91.4284 52.6995C91.6748 51.7279 91.9576 49.68 90.8432 48.6671Z" fill="black"/>
<path d="M80.0548 46.5364C80.0548 46.5364 78.9348 46.9228 81.1748 60.4882H90.6948C90.5352 56.6683 90.5296 54.3113 92.3748 46.4674C91.0409 46.1961 89.6886 46.0208 88.3288 45.943C86.8896 45.8407 85.4448 45.8407 84.0056 45.943C82.1604 46.1113 80.0548 46.5364 80.0548 46.5364Z" fill="#263238"/>
<path opacity="0.4" d="M79.968 51.7417C80.0296 52.4014 80.1108 53.1438 80.2172 53.9829C80.9984 53.2901 81.6368 51.3195 81.4016 50.1713C80.8435 50.6178 80.3598 51.1477 79.968 51.7417Z" fill="black"/>
<path d="M80.9872 49.68C80.4735 50.9545 79.8951 52.2027 79.254 53.4198C78.6204 54.6809 77.8706 55.8819 77.014 57.0078L76.8349 57.2258L76.7453 57.3335C76.7144 57.3694 76.6893 57.4025 76.6417 57.4522C76.4732 57.6334 76.2854 57.7962 76.0817 57.9379C75.7215 58.1837 75.3273 58.377 74.9113 58.512C74.1856 58.7404 73.4323 58.8722 72.6713 58.9039C71.246 58.9598 69.8193 58.8346 68.4265 58.5313L68.5804 57.3721C69.2244 57.3721 69.8992 57.3721 70.5404 57.3197C71.1845 57.2885 71.8259 57.2184 72.4613 57.1099C73.0513 57.0192 73.6284 56.8598 74.1804 56.6352C74.4034 56.5413 74.6117 56.4168 74.7993 56.2654C74.8708 56.2063 74.9356 56.1396 74.9924 56.0666C74.9924 56.0666 75.0261 56.0225 75.0485 55.9921L75.1129 55.901L75.2445 55.7189C75.9471 54.6491 76.573 53.5323 77.1177 52.3765C77.6777 51.2035 78.2377 49.9864 78.7501 48.7885L80.9872 49.68Z" fill="#803E3C"/>
<path d="M80.0548 46.5364C78.8872 46.8124 77.4536 49.9698 77.4536 49.9698L79.8728 53.475C79.8728 53.475 83.0956 49.4758 82.712 48.2558C82.32 46.9835 81.48 46.1941 80.0548 46.5364Z" fill="#263238"/>
<path d="M69.2524 57.5488L67.2336 56.6297L67.032 58.6086C67.032 58.6086 68.712 59.0971 69.552 58.6086L69.2524 57.5488Z" fill="#7F3E3B"/>
<path d="M66.0268 56.431L65.8336 57.9379L67.032 58.6086L67.2336 56.6297L66.0268 56.431Z" fill="#7F3E3B"/>
<path d="M89.2696 38.4634C88.8412 40.7183 88.7096 41.6843 87.3992 42.7082C85.4392 44.2483 82.7092 43.2382 82.446 40.9032C82.2052 38.8001 82.9444 35.466 85.316 34.8312C85.8384 34.6891 86.389 34.6813 86.9154 34.8086C87.4417 34.9358 87.9262 35.1939 88.3227 35.5581C88.7191 35.9223 89.0143 36.3806 89.1801 36.8891C89.3458 37.3977 89.3767 37.9397 89.2696 38.4634Z" fill="#7F3E3B"/>
<path d="M84.2436 38.9381C84.112 40.089 84.0616 43.0781 86.6264 43.1719C89.7652 43.2851 90.706 40.641 90.426 39.5839C92.0612 38.2729 92.2964 36.018 90.4596 34.293C88.6228 32.568 84.5796 33.5313 83.4596 35.2121C82.04 37.2959 84.2436 38.9381 84.2436 38.9381Z" fill="#263238"/>
<path d="M87.388 34.9637C87.2368 33.7493 87.3544 32.913 88.508 32.913C89.6616 32.913 91.2352 33.3242 91.812 34.4862C92.3888 35.6482 92.4364 37.467 90.8264 37.2821C89.2164 37.0972 87.57 36.4155 87.388 34.9637Z" fill="#92E3A9"/>
<path d="M89.1744 34.6711C88.8944 33.2249 90.2076 29.1511 93.3968 28.8751C94.8752 28.7509 95.5584 30.3186 94.7968 30.578C96.1968 30.5615 97.0928 32.3858 95.788 32.6591C96.8184 33.3104 96.5636 34.6463 95.0936 35.3032C93.9988 35.8 89.5524 36.6749 89.1744 34.6711Z" fill="#263238"/>
<path d="M92.582 36.225C91.5544 36.225 90.482 36.076 89.8156 35.6371C89.6293 35.5264 89.4724 35.3735 89.358 35.1911C89.2435 35.0087 89.1749 34.8021 89.1576 34.5883C89.1568 34.5702 89.163 34.5524 89.1749 34.5386C89.1869 34.5247 89.2037 34.5159 89.222 34.5138C89.2313 34.5126 89.2407 34.5134 89.2496 34.516C89.2586 34.5187 89.2669 34.5231 89.274 34.5291C89.2811 34.5351 89.2869 34.5424 89.291 34.5507C89.295 34.559 89.2973 34.5681 89.2976 34.5773C89.3145 34.7702 89.3773 34.9565 89.4809 35.121C89.5845 35.2855 89.7261 35.4235 89.894 35.524C91.1624 36.352 94.094 36.076 95.0068 35.8C95.7964 35.546 96.3312 35.052 96.4376 34.4834C96.4708 34.2748 96.4446 34.0612 96.3621 33.8663C96.2796 33.6714 96.1438 33.5029 95.97 33.3794C95.9633 33.3733 95.958 33.3658 95.9543 33.3575C95.9507 33.3492 95.9488 33.3402 95.9488 33.3311C95.9488 33.3221 95.9507 33.3131 95.9543 33.3048C95.958 33.2965 95.9633 33.289 95.97 33.2828C95.9831 33.2702 96.0007 33.2631 96.019 33.2631C96.0373 33.2631 96.0549 33.2702 96.068 33.2828C96.2635 33.4234 96.4154 33.6148 96.5069 33.8356C96.5984 34.0564 96.6258 34.2979 96.586 34.5331C96.4712 35.1541 95.9028 35.684 95.0628 35.9545C94.2523 36.1559 93.4176 36.2469 92.582 36.225Z" fill="#263238"/>
<path d="M83.5296 38.64C83.2689 39.0005 83.1614 39.4472 83.23 39.8848C83.3224 40.4644 83.8936 40.503 84.308 40.1332C84.7224 39.7633 85.0836 39.0954 84.7784 38.6152C84.7106 38.5114 84.617 38.4265 84.5064 38.3686C84.3959 38.3106 84.2722 38.2814 84.147 38.2839C84.0218 38.2864 83.8994 38.3204 83.7913 38.3828C83.6832 38.4451 83.5931 38.5337 83.5296 38.64Z" fill="#7F3E3B"/>
<path d="M83.6892 60.4882C83.6892 60.4882 85.05 76.3554 86.464 85.2978C87.6036 92.5207 88.5052 109.404 88.5052 109.404H91.7028C91.7028 109.404 92.8396 93.0258 92.2628 85.8829C90.7984 67.8049 94.066 66.3311 90.7032 60.4909L83.6892 60.4882Z" fill="#92E3A9"/>
<path opacity="0.4" d="M87.7156 66.4857C86.4484 67.7967 85.4256 69.3177 84.6944 70.9789C85.0668 74.5449 85.5092 78.5027 85.9796 81.9693C87.9098 77.0436 88.508 71.7079 87.7156 66.4857Z" fill="black"/>
<path d="M81.452 60.3888C81.452 60.3888 78.498 77.7189 78.0332 85.5297C79.1924 92.7526 83.9356 108.021 83.9356 108.021L86.8448 106.98C86.8448 106.98 85.2348 90.332 83.4848 85.7753C87.4244 72.7012 90.3196 69.3947 89.4768 60.4882C87.458 60.4882 81.452 60.3888 81.452 60.3888Z" fill="#92E3A9"/>
<path d="M83.5464 108.783L87.4776 107.731L87.2536 106.185L83.0452 107.309L83.5464 108.783Z" fill="#263238"/>
<path d="M88.0656 109.467H92.1396L92.3524 108.06L88.0432 107.916L88.0656 109.467Z" fill="#263238"/>
<path d="M90.8433 59.9362L91.2717 60.778C91.3053 60.8442 91.2269 60.9104 91.1177 60.9104H81.1272C81.0432 60.9104 80.9705 60.869 80.9649 60.8138L80.8781 59.9858C80.8781 59.9279 80.948 59.8782 81.0404 59.8782H90.6865C90.7154 59.8743 90.7449 59.8776 90.7723 59.8877C90.7996 59.8978 90.824 59.9145 90.8433 59.9362Z" fill="#92E3A9"/>
<path opacity="0.5" d="M90.8433 59.9362L91.2717 60.778C91.3053 60.8442 91.2269 60.9104 91.1177 60.9104H81.1272C81.0432 60.9104 80.9705 60.869 80.9649 60.8138L80.8781 59.9858C80.8781 59.9279 80.948 59.8782 81.0404 59.8782H90.6865C90.7154 59.8743 90.7449 59.8776 90.7723 59.8877C90.7996 59.8978 90.824 59.9145 90.8433 59.9362Z" fill="black"/>
<path d="M89.5468 60.996H89.8044C89.8576 60.996 89.8968 60.9684 89.894 60.9381L89.7708 59.8341C89.7708 59.8009 89.7232 59.7761 89.6728 59.7761H89.4124C89.362 59.7761 89.3228 59.8009 89.3256 59.8341L89.446 60.9381C89.4516 60.9739 89.4964 60.996 89.5468 60.996Z" fill="#92E3A9"/>
<path d="M86.0804 52.9589C86.0495 52.9584 86.0196 52.9483 85.9949 52.9299C85.9702 52.9116 85.9521 52.8859 85.9432 52.8568C85.0304 49.5282 83.1432 46.7848 82.2276 46.3708C82.1565 46.3277 82.071 46.3138 81.9896 46.3321C81.9727 46.3409 81.9542 46.3462 81.9351 46.3476C81.9161 46.3491 81.8969 46.3467 81.8788 46.3405C81.8608 46.3344 81.8442 46.3247 81.83 46.312C81.8159 46.2993 81.8046 46.2839 81.7967 46.2667C81.7889 46.2495 81.7847 46.231 81.7844 46.2121C81.7841 46.1933 81.7877 46.1746 81.795 46.1572C81.8024 46.1398 81.8132 46.1241 81.8269 46.1109C81.8407 46.0978 81.857 46.0876 81.8748 46.081C81.9514 46.0533 82.0331 46.0424 82.1144 46.049C82.1956 46.0557 82.2744 46.0798 82.3452 46.1196C83.314 46.5722 85.2292 49.277 86.1868 52.6801C86.8728 52.6801 87.9312 52.589 88.1888 52.567C88.508 52.1916 90.8544 49.2991 89.978 46.1334C89.973 46.116 89.9715 46.0978 89.9737 46.0798C89.9759 46.0618 89.9818 46.0445 89.9909 46.0288C90 46.0131 90.0123 45.9994 90.0269 45.9884C90.0415 45.9775 90.0582 45.9695 90.076 45.965C90.1117 45.9557 90.1496 45.9607 90.1816 45.9787C90.2136 45.9968 90.237 46.0266 90.2468 46.0616C91.224 49.5834 88.3904 52.7602 88.3596 52.7905C88.3487 52.8039 88.3351 52.815 88.3197 52.823C88.3043 52.8311 88.2874 52.836 88.27 52.8374C88.256 52.8374 86.8588 52.9589 86.0804 52.9589Z" fill="#92E3A9"/>
<path d="M90.72 54.9074C89.194 52.0895 88.5696 51.8908 88.298 50.9855C88.5038 50.4793 88.7975 50.0123 89.166 49.6055C88.9812 49.553 88.5836 49.4758 88.326 49.4288C88.354 49.3046 88.3848 49.1832 88.4128 49.0645C88.1325 49.0336 87.849 49.0466 87.5728 49.1032V48.8272C87.2171 48.7509 86.8519 48.7276 86.4892 48.7582C86.5209 48.8888 86.5517 49.0213 86.5816 49.1556C86.3016 49.208 85.876 49.2936 85.6716 49.3516C86.0688 49.795 86.3605 50.3202 86.5256 50.8889C85.7024 52.2827 82.5048 61.2416 87.7072 61.9289C92.9096 62.6161 92.2432 57.7282 90.72 54.9074Z" fill="#92E3A9"/>
<path opacity="0.4" d="M90.72 54.9074C89.194 52.0895 88.5696 51.8908 88.298 50.9855C88.5038 50.4793 88.7975 50.0123 89.166 49.6055C88.9812 49.553 88.5836 49.4758 88.326 49.4288C88.354 49.3046 88.3848 49.1832 88.4128 49.0645C88.1325 49.0336 87.849 49.0466 87.5728 49.1032V48.8272C87.2171 48.7509 86.8519 48.7276 86.4892 48.7582C86.5209 48.8888 86.5517 49.0213 86.5816 49.1556C86.3016 49.208 85.876 49.2936 85.6716 49.3516C86.0688 49.795 86.3605 50.3202 86.5256 50.8889C85.7024 52.2827 82.5048 61.2416 87.7072 61.9289C92.9096 62.6161 92.2432 57.7282 90.72 54.9074Z" fill="white"/>
<path d="M86.3128 50.6212C86.2805 50.7633 86.2663 50.9089 86.2708 51.0545C86.2708 51.1566 86.5508 51.2256 86.8616 51.256C87.1724 51.2863 88.4772 51.336 88.4352 51.1925C88.3932 51.049 88.4996 50.853 88.5052 50.7316C88.5108 50.6101 87.9872 50.6046 87.5476 50.6212C87.108 50.6377 86.3996 50.4666 86.3128 50.6212Z" fill="#92E3A9"/>
<path d="M83.286 60.996H83.5436C83.594 60.996 83.6332 60.9684 83.6304 60.9381L83.51 59.8341C83.51 59.8009 83.4624 59.7761 83.4092 59.7761H83.16C83.1096 59.7761 83.0704 59.8009 83.0732 59.8341L83.1936 60.9381C83.188 60.9739 83.2328 60.996 83.286 60.996Z" fill="#92E3A9"/>
</svg>
