<svg width="140" height="138" viewBox="0 0 140 138" fill="none" xmlns="http://www.w3.org/2000/svg">
<path d="M0 0H135C137.761 0 140 2.23858 140 5V133C140 135.761 137.761 138 135 138H0V0Z" fill="#489060"/>
<path d="M140 105.542H0V105.611H140V105.542Z" fill="#E6E6E6"/>
<path d="M34.9496 109.718H25.676V109.787H34.9496V109.718Z" fill="#E6E6E6"/>
<path d="M22.7416 109.718H17.3684V109.787H22.7416V109.718Z" fill="#E6E6E6"/>
<path d="M58.954 110.734H53.5808V110.803H58.954V110.734Z" fill="#E6E6E6"/>
<path d="M86.9708 112.274H74.8776V112.343H86.9708V112.274Z" fill="#E6E6E6"/>
<path d="M72.3856 112.274H70.6132V112.343H72.3856V112.274Z" fill="#E6E6E6"/>
<path d="M126.938 110.734H100.708V110.803H126.938V110.734Z" fill="#E6E6E6"/>
<path d="M66.36 93.2328H12.2948C11.8712 93.2321 11.4653 93.0657 11.1661 92.7702C10.8669 92.4748 10.6988 92.0743 10.6988 91.6568V16.7422C10.7025 16.3271 10.8722 15.9302 11.171 15.6377C11.4698 15.3452 11.8737 15.1807 12.2948 15.18H66.36C66.784 15.18 67.1907 15.346 67.4905 15.6416C67.7904 15.9371 67.9588 16.338 67.9588 16.756V91.6568C67.9588 92.0748 67.7904 92.4757 67.4905 92.7712C67.1907 93.0668 66.784 93.2328 66.36 93.2328ZM12.2948 15.2352C11.8898 15.2359 11.5017 15.395 11.2156 15.6775C10.9295 15.9601 10.7688 16.343 10.7688 16.7422V91.6568C10.7688 92.056 10.9295 92.4389 11.2156 92.7214C11.5017 93.004 11.8898 93.1631 12.2948 93.1638H66.36C66.7652 93.1631 67.1537 93.0041 67.4402 92.7216C67.7267 92.4392 67.8881 92.0563 67.8888 91.6568V16.7422C67.8881 16.3427 67.7267 15.9598 67.4402 15.6774C67.1537 15.3949 66.7652 15.2359 66.36 15.2352H12.2948Z" fill="#E6E6E6"/>
<path d="M126.927 93.2328H72.8588C72.435 93.2321 72.0288 93.0658 71.7291 92.7704C71.4294 92.475 71.2608 92.0746 71.26 91.6568V16.7422C71.2644 16.3268 71.4347 15.9299 71.734 15.6375C72.0333 15.3451 72.4374 15.1807 72.8588 15.18H126.927C127.347 15.1814 127.751 15.3462 128.049 15.6386C128.347 15.931 128.516 16.3275 128.52 16.7422V91.6568C128.52 92.0738 128.352 92.4739 128.054 92.7692C127.755 93.0646 127.35 93.2313 126.927 93.2328ZM72.8588 15.2352C72.4536 15.2359 72.0651 15.3949 71.7786 15.6774C71.4921 15.9598 71.3307 16.3427 71.33 16.7422V91.6568C71.3307 92.0563 71.4921 92.4392 71.7786 92.7216C72.0651 93.0041 72.4536 93.1631 72.8588 93.1638H126.927C127.332 93.1631 127.72 93.0041 128.007 92.7216C128.294 92.4392 128.455 92.0563 128.456 91.6568V16.7422C128.455 16.3427 128.294 15.9598 128.007 15.6774C127.72 15.3949 127.332 15.2359 126.927 15.2352H72.8588Z" fill="#E6E6E6"/>
<path d="M74.872 81.9665H68.7148V106.042H74.872V81.9665Z" fill="#E0E0E0"/>
<path d="M73.7016 106.042H74.872V102.763H72.4752L73.7016 106.042Z" fill="#FAFAFA"/>
<path d="M47.8912 81.9665H41.734V106.042H47.8912V81.9665Z" fill="#E0E0E0"/>
<path d="M74.872 81.9665H46.872V104.03H74.872V81.9665Z" fill="#FAFAFA"/>
<path d="M73.8556 83.0512V88.8886H47.88V83.0512H73.8472M73.9564 82.9435H47.7792V88.9934H73.9648V82.9435H73.9564Z" fill="#E0E0E0"/>
<path d="M48.0396 106.042H46.872V102.763H49.266L48.0396 106.042Z" fill="#FAFAFA"/>
<path d="M60.2532 85.9685C60.2532 86.0891 60.2895 86.2071 60.3575 86.3074C60.4255 86.4077 60.5221 86.4858 60.6352 86.532C60.7483 86.5782 60.8727 86.5903 60.9927 86.5667C61.1128 86.5432 61.223 86.4851 61.3096 86.3998C61.3961 86.3145 61.455 86.2058 61.4789 86.0875C61.5028 85.9692 61.4905 85.8465 61.4437 85.7351C61.3969 85.6236 61.3176 85.5283 61.2158 85.4613C61.114 85.3943 60.9944 85.3585 60.872 85.3585C60.7079 85.3585 60.5505 85.4228 60.4344 85.5372C60.3184 85.6516 60.2532 85.8067 60.2532 85.9685Z" fill="#E6E6E6"/>
<path d="M73.8556 90.0781V95.9155H47.88V90.0781H73.8472M73.9564 89.9732H47.7792V96.0232H73.9648V89.976L73.9564 89.9732Z" fill="#E0E0E0"/>
<path d="M60.2532 93.012C60.2532 93.1326 60.2895 93.2506 60.3575 93.3509C60.4255 93.4512 60.5221 93.5294 60.6352 93.5755C60.7483 93.6217 60.8727 93.6338 60.9927 93.6102C61.1128 93.5867 61.223 93.5286 61.3096 93.4433C61.3961 93.358 61.455 93.2493 61.4789 93.131C61.5028 93.0127 61.4905 92.89 61.4437 92.7786C61.3969 92.6671 61.3176 92.5719 61.2158 92.5048C61.114 92.4378 60.9944 92.402 60.872 92.402C60.7079 92.402 60.5505 92.4663 60.4344 92.5807C60.3184 92.6951 60.2532 92.8502 60.2532 93.012Z" fill="#E6E6E6"/>
<path d="M73.8556 97.1078V102.948H47.88V97.1078H73.8472M73.9564 97.0002H47.7792V103.053H73.9648V97.0002H73.9564Z" fill="#E0E0E0"/>
<path d="M60.2532 100.028C60.2538 100.148 60.2905 100.266 60.3589 100.366C60.4272 100.466 60.524 100.544 60.6371 100.589C60.7503 100.635 60.8746 100.647 60.9944 100.623C61.1143 100.599 61.2243 100.541 61.3105 100.455C61.3968 100.37 61.4555 100.261 61.4791 100.143C61.5028 100.025 61.4903 99.9024 61.4434 99.7911C61.3965 99.6798 61.3172 99.5847 61.2155 99.5178C61.1138 99.4509 60.9943 99.4152 60.872 99.4152C60.7905 99.4152 60.7098 99.4311 60.6346 99.4619C60.5593 99.4927 60.491 99.5379 60.4335 99.5948C60.376 99.6518 60.3304 99.7193 60.2995 99.7936C60.2686 99.868 60.2528 99.9476 60.2532 100.028Z" fill="#E6E6E6"/>
<path d="M44.1308 67.9843H37.9736V106.045H44.1308V67.9843Z" fill="#E0E0E0"/>
<path d="M42.9604 106.042H44.1308V102.763H41.7368L42.9604 106.042Z" fill="#FAFAFA"/>
<path d="M21.1204 67.9843H14.9632V106.045H21.1204V67.9843Z" fill="#E0E0E0"/>
<path d="M44.1308 67.9843H20.0984V104.033H44.1308V67.9843Z" fill="#FAFAFA"/>
<path d="M43.0948 69V77.1613H21.1344V69H43.0948ZM43.2236 68.8758H21V77.28H43.218V68.8786L43.2236 68.8758Z" fill="#E0E0E0"/>
<path d="M43.0948 78.1577V99.8044H32.634V78.1577H43.0948ZM43.2236 78.0307H32.508V99.9313H43.2236V78.0307Z" fill="#E0E0E0"/>
<path d="M31.5952 78.1577V99.8044H21.1344V78.1577H31.5952ZM31.7212 78.0307H21V99.9313H31.7156V78.0307H31.7212Z" fill="#E0E0E0"/>
<path d="M21.2688 106.042H20.0984V102.763H22.4952L21.2688 106.042Z" fill="#FAFAFA"/>
<path d="M31.4944 73.0848C31.4938 73.2061 31.5298 73.3248 31.5978 73.426C31.6657 73.5271 31.7626 73.606 31.8762 73.6528C31.9897 73.6996 32.1148 73.7122 32.2355 73.6888C32.3563 73.6655 32.4673 73.6074 32.5545 73.5218C32.6417 73.4362 32.7012 73.327 32.7254 73.2081C32.7496 73.0892 32.7375 72.9658 32.6905 72.8537C32.6436 72.7416 32.5639 72.6457 32.4616 72.5783C32.3593 72.5108 32.239 72.4748 32.116 72.4748C31.9516 72.4748 31.7939 72.539 31.6774 72.6533C31.5609 72.7676 31.4951 72.9228 31.4944 73.0848Z" fill="#E6E6E6"/>
<path d="M33.712 88.4663C33.712 88.5876 33.7485 88.7061 33.817 88.807C33.8854 88.9078 33.9826 88.9863 34.0964 89.0326C34.2101 89.0789 34.3353 89.0909 34.4559 89.067C34.5766 89.0431 34.6873 88.9845 34.7741 88.8986C34.861 88.8126 34.9199 88.7031 34.9436 88.5841C34.9673 88.4651 34.9546 88.3418 34.9071 88.2299C34.8596 88.118 34.7795 88.0225 34.6769 87.9555C34.5743 87.8885 34.4539 87.853 34.3308 87.8536C34.2493 87.8536 34.1686 87.8694 34.0934 87.9002C34.0181 87.9311 33.9498 87.9762 33.8923 88.0332C33.8348 88.0901 33.7892 88.1577 33.7583 88.232C33.7274 88.3063 33.7116 88.3859 33.712 88.4663Z" fill="#E6E6E6"/>
<path d="M29.2796 88.4663C29.2802 88.5868 29.3169 88.7044 29.3853 88.8044C29.4536 88.9043 29.5504 88.9821 29.6635 89.0278C29.7767 89.0736 29.901 89.0853 30.0208 89.0614C30.1407 89.0376 30.2507 88.9792 30.3369 88.8938C30.4232 88.8084 30.4819 88.6997 30.5055 88.5815C30.5292 88.4632 30.5167 88.3407 30.4698 88.2294C30.4229 88.1182 30.3436 88.0231 30.2419 87.9562C30.1402 87.8893 30.0207 87.8535 29.8984 87.8535C29.8169 87.8535 29.7362 87.8694 29.661 87.9002C29.5857 87.9311 29.5174 87.9762 29.4599 88.0332C29.4024 88.0901 29.3568 88.1577 29.3259 88.232C29.295 88.3063 29.2792 88.3859 29.2796 88.4663Z" fill="#E6E6E6"/>
<path d="M28.5796 57.3721H25.984C26.2232 58.6132 26.3738 59.8693 26.4348 61.1312C26.4348 62.5112 24.458 67.9843 27.2748 67.9843C30.0916 67.9843 28.1148 62.525 28.1148 61.1312C28.1804 59.869 28.3357 58.6129 28.5796 57.3721Z" fill="#E0E0E0"/>
<path d="M18.704 62.9694V64.6254C18.707 65.5131 19.066 66.3637 19.7029 66.9914C20.3397 67.6192 21.2026 67.9731 22.1032 67.976H23.7832C24.6838 67.9731 25.5467 67.6192 26.1835 66.9914C26.8204 66.3637 27.1795 65.5131 27.1824 64.6254V62.9694H18.704Z" fill="#F5F5F5"/>
<path d="M54.7876 78.4557C54.7876 80.3877 56.98 81.9665 59.6596 81.9665H62.0788C64.7584 81.9665 66.9508 80.3877 66.9508 78.4557H54.7876Z" fill="#E0E0E0"/>
<path d="M118.891 75.624C117.424 76.8053 115.396 78.9664 113.543 82.0079C112.305 84.0337 111.56 86.1479 111.233 88.9576C111.233 85.7836 111.252 82.375 111.264 79.1568C111.636 78.3288 112.487 76.4189 113.098 74.9119C115.133 69.8804 115.898 68.6412 117.726 64.3025C120.17 58.5065 122.674 51.6451 121.957 52.1944C120.495 53.3122 114.895 63.6484 114.29 65.1277C112.642 69.0757 111.623 73.2512 111.269 77.5063C111.269 74.4703 111.292 71.7103 111.303 69.5686C111.342 62.583 111.462 60.3281 111.521 59.6326C111.748 59.2793 112.014 58.868 112.171 58.6472C113.487 56.7704 113.994 55.1752 115.231 52.3765C116.99 48.4159 118.502 41.3807 118.059 41.734C116.217 43.2133 114.766 46.3873 112.857 50.4362C110.947 54.4852 111.493 56.8118 111.115 60.2674C111.037 60.9463 110.975 63.5076 110.93 67.0542C110.438 63.273 109.508 60.7835 107.814 58.5203C105.731 55.7354 103.715 53.8559 102.236 52.8733C100.758 51.8908 104.79 58.73 106.716 61.7053C108.433 64.366 110.015 66.7092 110.916 69.0193C110.869 73.83 110.846 79.9186 110.846 85.5793C110.404 83.0015 109.682 80.2222 108.718 78.0721C107.559 75.4888 105.778 71.5254 104.359 70.1813C104.02 69.8584 105.843 77.567 107.013 79.615C108.184 81.6629 109.043 83.5976 109.78 84.7596C109.95 85.0356 110.522 86.0761 110.846 86.6778C110.846 93.5971 110.886 99.7022 110.947 101.781H111.25C111.23 101.245 111.224 97.7233 111.233 93.0644C111.964 90.5363 113.632 87.6493 115.01 85.0163C116.511 82.1652 120.358 74.451 118.891 75.624Z" fill="#E0E0E0"/>
<path d="M115.483 106.042H106.708L106.044 97.5632H116.147L115.483 106.042Z" fill="#F0F0F0"/>
<path d="M116.799 98.5513H105.389L105.064 95.6892H117.127L116.799 98.5513Z" fill="#F5F5F5"/>
<path d="M34.7928 20.838H19.0988V37.8258H34.7928V20.838Z" fill="#E0E0E0"/>
<path d="M36.4924 20.838H20.2804V37.8258H36.4924V20.838Z" fill="#F5F5F5"/>
<path d="M35.1344 36.4872V22.1766H21.6384V36.4872H35.1344Z" fill="white"/>
<path d="M31.8612 33.0151V25.6432H24.9088V33.0151H31.8612Z" fill="#F5F5F5"/>
<path d="M114.814 22.8169H100.234V38.5986H114.814V22.8169Z" fill="#E0E0E0"/>
<path d="M116.393 22.8169H101.335V38.5986H116.393V22.8169Z" fill="#F5F5F5"/>
<path d="M115.133 37.3538V24.0617H102.598V37.3538H115.133Z" fill="white"/>
<path d="M108.864 34.5635C111.024 34.5635 112.776 32.8372 112.776 30.7078C112.776 28.5783 111.024 26.852 108.864 26.852C106.704 26.852 104.952 28.5783 104.952 30.7078C104.952 32.8372 106.704 34.5635 108.864 34.5635Z" fill="#F5F5F5"/>
<path d="M51.0972 30.9672H39.4548V43.5694H51.0972V30.9672Z" fill="#E0E0E0"/>
<path d="M52.3572 30.9672H40.3312V43.5694H52.3572V30.9672Z" fill="#F5F5F5"/>
<path d="M51.3492 42.5757V31.9608H41.3392V42.5757H51.3492Z" fill="white"/>
<path d="M46.3456 34.5828L43.6072 39.2582H49.084L46.3456 34.5828Z" fill="#F5F5F5"/>
<path d="M70 118.007C99.9831 118.007 124.289 116.608 124.289 114.882C124.289 113.157 99.9831 111.758 70 111.758C40.0169 111.758 15.7108 113.157 15.7108 114.882C15.7108 116.608 40.0169 118.007 70 118.007Z" fill="#F5F5F5"/>
<path d="M97.79 45.1067L95.0124 44.0027C95.0124 44.0027 91.3472 50.5908 90.2972 50.9248C88.8692 51.3774 85.9124 52.636 84.1596 52.8568C83.9216 53.1328 83.5324 53.9911 83.5688 54.303C85.9236 55.0786 91.098 54.0491 92.2068 53.2376C94.7296 51.3967 97.79 45.1067 97.79 45.1067Z" fill="#E58A7B"/>
<path d="M98.644 43.608C99.162 45.4931 96.3564 49.2853 96.3564 49.2853L92.68 47.254C92.68 47.254 93.3688 45.6946 94.2088 44.1076C95.5556 41.5435 98.0532 41.458 98.644 43.608Z" fill="#92E3A9"/>
<path opacity="0.2" d="M98.644 43.608C99.162 45.4931 96.3564 49.2853 96.3564 49.2853L92.68 47.254C92.68 47.254 93.3688 45.6946 94.2088 44.1076C95.5556 41.5435 98.0532 41.458 98.644 43.608Z" fill="black"/>
<path opacity="0.2" d="M94.1388 48.0654L95.5864 48.8658L95.8412 44.4857C94.9984 45.1232 94.4048 47.0442 94.1388 48.0654Z" fill="black"/>
<path d="M96.2248 42.1894C96.2248 42.1894 93.3632 48.4656 95.032 60.1514H106.308C106.487 58.4458 105.893 50.1216 108.041 42.0845C106.804 41.8462 105.552 41.6885 104.294 41.6125C102.699 41.5214 101.099 41.5214 99.5036 41.6125C98.3975 41.7232 97.3014 41.9161 96.2248 42.1894Z" fill="#92E3A9"/>
<path opacity="0.2" d="M96.2248 42.1894C96.2248 42.1894 93.3632 48.4656 95.032 60.1514H106.308C106.487 58.4458 105.893 50.1216 108.041 42.0845C106.804 41.8462 105.552 41.6885 104.294 41.6125C102.699 41.5214 101.099 41.5214 99.5036 41.6125C98.3975 41.7232 97.3014 41.9161 96.2248 42.1894Z" fill="black"/>
<g style="mix-blend-mode:multiply">
<path d="M93.6096 115.131C93.5928 115.429 97.8684 115.669 103.158 115.669C108.447 115.669 112.753 115.429 112.77 115.131C112.787 114.833 108.514 114.595 103.222 114.595C97.93 114.595 93.6292 114.835 93.6096 115.131Z" fill="#E8ECF1"/>
</g>
<path d="M101.136 107.299L99.1363 108.062L100.859 112.448L102.859 111.685L101.136 107.299Z" fill="#E58A7B"/>
<path d="M110.054 113.008H107.946L107.173 108.198H109.281L110.054 113.008Z" fill="#E58A7B"/>
<path d="M107.8 112.768H110.169C110.21 112.768 110.25 112.783 110.281 112.809C110.312 112.835 110.333 112.872 110.34 112.912L110.645 114.758C110.651 114.804 110.647 114.851 110.634 114.896C110.62 114.941 110.597 114.982 110.565 115.017C110.534 115.053 110.495 115.081 110.452 115.1C110.409 115.119 110.362 115.128 110.314 115.128C109.488 115.114 109.091 115.064 108.049 115.064C107.408 115.064 106.089 115.131 105.199 115.131C104.308 115.131 104.25 114.27 104.616 114.189C106.263 113.839 106.901 113.361 107.45 112.898C107.547 112.814 107.671 112.768 107.8 112.768Z" fill="black"/>
<path d="M100.8 112.056L103.04 111.41C103.08 111.399 103.123 111.402 103.161 111.418C103.199 111.434 103.23 111.462 103.25 111.498L104.09 113.154C104.109 113.196 104.119 113.242 104.119 113.288C104.119 113.335 104.108 113.38 104.088 113.422C104.068 113.464 104.039 113.501 104.003 113.53C103.967 113.56 103.925 113.581 103.88 113.593C103.065 113.814 102.519 113.949 101.5 114.242C100.797 114.443 100.08 114.772 99.386 114.99C98.9044 115.142 97.7732 115.147 97.188 115.147C96.3228 115.147 96.1296 114.247 96.502 114.206C97.44 114.104 97.566 114.151 98.084 113.894C98.9316 113.529 99.6997 113.006 100.346 112.354C100.468 112.217 100.625 112.114 100.8 112.056Z" fill="black"/>
<path d="M84.5124 52.8457L82.194 51.888L81.2392 54.4217C82.1894 54.5644 83.1561 54.5644 84.1064 54.4217L84.5124 52.8457Z" fill="#E58A7B"/>
<path d="M80.4692 51.8218L80.4076 53.5054L81.2392 54.4162L82.194 51.8825L80.4692 51.8218Z" fill="#E58A7B"/>
<path d="M101.41 107.671L99.4044 108.434L100.293 110.703L102.299 109.939L101.41 107.671Z" fill="#CF6F64"/>
<path d="M109.281 108.198H107.173L107.573 110.679H109.682L109.281 108.198Z" fill="#CF6F64"/>
<path opacity="0.2" d="M94.6736 56.9912C94.7156 57.4908 94.7632 58.0014 94.8248 58.5258L103.208 55.8431C104.517 55.4606 105.655 54.6497 106.434 53.544C106.467 52.8071 106.509 52.0315 106.574 51.2228C106.602 50.8309 106.635 50.428 106.672 50.0195C106.708 49.611 106.758 49.1584 106.812 48.7223L94.6736 56.9912Z" fill="black"/>
<path d="M97.412 47.9384L97.132 47.9053C97.2972 46.5253 98.3416 45.4379 99.442 45.4655V45.7415C98.4788 45.7222 97.5604 46.702 97.412 47.9384Z" fill="white"/>
<path d="M98.9044 50.4859H98.8568V50.2099C99.82 50.2458 100.724 49.255 100.873 48.0212L101.153 48.0544C101.004 49.404 99.9936 50.4859 98.9044 50.4859Z" fill="white"/>
<path d="M104.138 36.294C103.743 37.8148 103.278 40.5996 104.294 41.6125C104.294 41.6125 103.583 43.1554 100.719 43.1554C98.1008 43.1554 99.5036 41.6125 99.5036 41.6125C101.245 41.2096 101.276 39.9565 101.046 38.7697L104.138 36.294Z" fill="#E58A7B"/>
<path d="M102.878 37.3042L101.049 38.7697C101.106 39.0425 101.139 39.3195 101.147 39.5977C101.682 40.1221 102.754 38.7946 102.864 38.1156C102.919 37.8483 102.924 37.5732 102.878 37.3042Z" fill="#CF6F64"/>
<path d="M97.9048 36.2747C98.032 36.492 98.2033 36.6812 98.4081 36.8303C98.6129 36.9794 98.8466 37.0853 99.0948 37.1413C99.7668 37.2876 100.103 36.6776 99.918 36.0649C99.7528 35.5129 99.2012 34.7705 98.518 34.8974C98.3716 34.9272 98.2346 34.991 98.1185 35.0836C98.0023 35.1763 97.9103 35.295 97.8503 35.4299C97.7903 35.5647 97.7639 35.7118 97.7733 35.8588C97.7828 36.0058 97.8279 36.1484 97.9048 36.2747Z" fill="#CF6F64"/>
<path d="M99.0164 31.4088C97.9692 31.8808 97.5996 35.9821 98.9156 36.5893C100.232 37.1965 100.999 30.5118 99.0164 31.4088Z" fill="black"/>
<path d="M104.457 34.006C104.205 36.0649 104.177 37.2766 103.057 38.3309C102.71 38.6808 102.271 38.9293 101.79 39.049C101.309 39.1688 100.803 39.1551 100.329 39.0094C99.8553 38.8638 99.4314 38.5919 99.1044 38.2238C98.7773 37.8556 98.5599 37.4056 98.476 36.9233C98.1372 35.0741 98.6048 32.0188 100.699 31.199C101.139 31.0077 101.623 30.9359 102.101 30.991C102.579 31.0461 103.033 31.2262 103.416 31.5125C103.799 31.7989 104.098 32.1811 104.281 32.6195C104.464 33.0579 104.525 33.5366 104.457 34.006Z" fill="#E58A7B"/>
<path d="M101.016 32.4742C102.567 32.085 103.706 31.82 103.298 33.0924C102.757 34.7926 102.108 36.4375 102.978 36.512C103.51 36.559 105.862 35.5764 105.563 34.58C105.302 33.7134 106.403 33.476 106.599 33.0372C107.324 31.4474 105.249 31.6572 105.619 30.6912C105.988 29.7252 103.939 28.1686 102.819 28.9441C100.996 30.1972 97.8684 30.1778 99.512 28.1161C100.691 26.645 98.588 26.9459 98.588 26.9459C98.588 26.9459 99.8592 27.6883 97.72 28.8365C95.4576 30.0619 97.5324 33.3546 101.016 32.4742Z" fill="black"/>
<path d="M105.28 36.2747C104.974 36.7115 104.514 37.0204 103.989 37.1413C103.298 37.2876 103.032 36.6776 103.292 36.0649C103.524 35.5129 104.163 34.7705 104.824 34.8974C105.484 35.0244 105.636 35.7337 105.28 36.2747Z" fill="#E58A7B"/>
<path d="M95.032 60.1514C95.032 60.1514 93.1392 76.8494 92.9908 83.1864C92.8396 89.7773 99.4056 110.342 99.4056 110.342L102.766 108.962C102.766 108.962 98.8456 90.172 99.4056 83.6998C99.9992 76.6424 102.452 60.1625 102.452 60.1625L95.032 60.1514Z" fill="#92E3A9"/>
<path opacity="0.2" d="M99.736 64.7358C98.2268 67.8215 99.2432 73.9238 100.061 77.5394C100.372 74.9864 100.741 72.2154 101.091 69.6514C101.058 65.7101 100.747 62.6658 99.736 64.7358Z" fill="black"/>
<path d="M102.617 107.869C102.634 107.869 103.015 108.923 103.015 108.923L99.1396 110.53L98.5292 109.409L102.617 107.869Z" fill="#92E3A9"/>
<path d="M99.0332 60.1514C99.0332 60.1514 100.481 76.0325 101.438 81.9803C102.491 88.4966 106.618 110.199 106.618 110.199H110.48C110.48 110.199 108.167 89.0238 107.73 82.5709C107.254 75.5716 106.308 60.1514 106.308 60.1514H99.0332Z" fill="#92E3A9"/>
<path d="M110.538 109.208C110.555 109.208 110.667 110.27 110.667 110.27H106.422L106.12 109.05L110.538 109.208Z" fill="#92E3A9"/>
<path opacity="0.2" d="M109.06 107.949C109.051 107.949 109.043 107.946 109.036 107.941C109.029 107.935 109.025 107.927 109.024 107.919C109.001 107.726 106.915 88.5988 106.523 82.8028C106.098 76.5155 105.241 62.5692 105.232 62.4284C105.232 62.4239 105.233 62.4193 105.234 62.4149C105.236 62.4106 105.238 62.4066 105.241 62.4032C105.244 62.3998 105.248 62.3972 105.252 62.3953C105.257 62.3935 105.261 62.3925 105.266 62.3926C105.275 62.3925 105.284 62.3959 105.291 62.4021C105.298 62.4082 105.302 62.4167 105.302 62.4257C105.302 62.5664 106.168 76.5017 106.593 82.8C106.985 88.596 109.071 107.709 109.091 107.916C109.092 107.921 109.091 107.925 109.09 107.93C109.089 107.934 109.087 107.938 109.084 107.942C109.081 107.946 109.078 107.949 109.073 107.951C109.069 107.953 109.065 107.954 109.06 107.955V107.949Z" fill="black"/>
<path d="M101.254 34.58C101.254 34.7484 101.147 34.8836 101.035 34.8836C100.923 34.8836 100.842 34.7484 100.853 34.58C100.864 34.4117 100.96 34.2764 101.072 34.2764C101.184 34.2764 101.265 34.4144 101.254 34.58Z" fill="black"/>
<path d="M99.3328 34.58C99.3328 34.7484 99.2236 34.8836 99.1144 34.8836C99.0052 34.8836 98.9212 34.7484 98.9296 34.58C98.938 34.4117 99.0388 34.2764 99.1508 34.2764C99.2628 34.2764 99.344 34.4144 99.3328 34.58Z" fill="black"/>
<path d="M99.9376 34.6656C99.7039 35.1797 99.4026 35.6613 99.0416 36.098C99.3216 36.374 99.8452 36.2471 99.8452 36.2471L99.9376 34.6656Z" fill="#DF5753"/>
<path d="M99.988 36.9509C99.9815 36.9509 99.9751 36.9496 99.9691 36.9471C99.9631 36.9445 99.9578 36.9408 99.9533 36.9362C99.9488 36.9315 99.9454 36.926 99.9432 36.92C99.941 36.914 99.94 36.9076 99.9404 36.9012C99.9411 36.8878 99.947 36.8751 99.9569 36.8659C99.9668 36.8567 99.98 36.8515 99.9936 36.8515C100.208 36.853 100.42 36.8071 100.613 36.7173C100.807 36.6276 100.978 36.4961 101.114 36.3326C101.123 36.3243 101.136 36.3197 101.149 36.3197C101.161 36.3197 101.174 36.3243 101.184 36.3326C101.193 36.3419 101.198 36.3543 101.198 36.3671C101.198 36.38 101.193 36.3924 101.184 36.4016C101.039 36.5754 100.856 36.7149 100.649 36.8099C100.442 36.905 100.216 36.9531 99.988 36.9509Z" fill="black"/>
<path d="M101.595 34.0722C101.582 34.079 101.567 34.0825 101.552 34.0825C101.537 34.0825 101.522 34.079 101.508 34.0722C101.404 34.0055 101.284 33.9639 101.16 33.951C101.036 33.938 100.911 33.954 100.794 33.9977C100.783 34.0033 100.771 34.0066 100.758 34.0074C100.745 34.0082 100.733 34.0065 100.721 34.0024C100.709 33.9983 100.697 33.9918 100.688 33.9834C100.679 33.975 100.671 33.9649 100.666 33.9535C100.655 33.929 100.655 33.9014 100.665 33.8766C100.675 33.8519 100.694 33.8319 100.719 33.821C100.865 33.7621 101.024 33.7389 101.181 33.7533C101.339 33.7677 101.49 33.8193 101.623 33.9038C101.634 33.911 101.643 33.9203 101.65 33.931C101.657 33.9417 101.662 33.9537 101.664 33.9663C101.667 33.9789 101.667 33.9918 101.664 34.0043C101.661 34.0168 101.656 34.0286 101.648 34.0391C101.634 34.0549 101.616 34.0664 101.595 34.0722Z" fill="black"/>
<path d="M98.5908 33.5202C98.5759 33.5167 98.5623 33.509 98.5516 33.4981C98.5423 33.4891 98.5349 33.4784 98.5298 33.4666C98.5248 33.4547 98.5222 33.442 98.5222 33.4291C98.5222 33.4163 98.5248 33.4036 98.5298 33.3917C98.5349 33.3799 98.5423 33.3691 98.5516 33.3601C98.6589 33.2415 98.7926 33.1489 98.9422 33.0895C99.0917 33.0301 99.2532 33.0056 99.414 33.0179C99.4269 33.0198 99.4392 33.0244 99.4502 33.0312C99.4613 33.0381 99.4707 33.0471 99.4781 33.0577C99.4854 33.0683 99.4905 33.0803 99.493 33.0929C99.4954 33.1055 99.4952 33.1185 99.4924 33.1311C99.4864 33.1566 99.4711 33.1791 99.4495 33.1944C99.4278 33.2096 99.4013 33.2165 99.3748 33.2138C99.2476 33.2059 99.1202 33.2267 99.0023 33.2745C98.8844 33.3223 98.7791 33.396 98.6944 33.4898C98.6816 33.5038 98.6652 33.514 98.6469 33.5194C98.6287 33.5248 98.6092 33.525 98.5908 33.5202Z" fill="black"/>
<path d="M109.124 44.8003L106.212 44.0358C106.212 44.0358 103.356 50.9662 102.346 51.416C100.974 52.0343 97.4988 54.176 96.0204 55.189C95.9392 55.534 96.0036 56.4475 96.1884 56.6987C98.7084 56.246 103.533 54.4162 104.541 53.486C106.84 51.3636 109.124 44.8003 109.124 44.8003Z" fill="#E58A7B"/>
<path d="M107.092 113.132C106.949 113.143 106.808 113.105 106.691 113.025C106.655 112.993 106.628 112.952 106.613 112.906C106.598 112.861 106.595 112.812 106.604 112.765C106.606 112.736 106.616 112.708 106.633 112.683C106.649 112.659 106.673 112.64 106.7 112.627C106.935 112.509 107.593 112.92 107.668 112.967C107.677 112.972 107.683 112.979 107.687 112.988C107.69 112.997 107.691 113.007 107.688 113.016C107.686 113.026 107.681 113.035 107.674 113.042C107.667 113.049 107.658 113.055 107.649 113.058C107.466 113.102 107.279 113.127 107.092 113.132ZM106.812 112.702C106.79 112.697 106.768 112.697 106.747 112.702C106.736 112.707 106.728 112.716 106.722 112.726C106.716 112.736 106.713 112.748 106.714 112.76C106.706 112.792 106.707 112.825 106.717 112.857C106.727 112.888 106.745 112.917 106.77 112.939C106.879 113.036 107.153 113.047 107.514 112.978C107.299 112.838 107.057 112.744 106.803 112.702H106.812Z" fill="#92E3A9"/>
<path d="M107.635 113.058C107.628 113.06 107.62 113.06 107.612 113.058C107.402 112.942 107.008 112.487 107.066 112.255C107.075 112.218 107.096 112.185 107.126 112.162C107.156 112.138 107.193 112.125 107.232 112.125C107.269 112.12 107.307 112.123 107.344 112.134C107.38 112.145 107.413 112.164 107.442 112.188C107.674 112.384 107.688 112.986 107.688 113.016C107.689 113.026 107.688 113.035 107.683 113.043C107.678 113.051 107.671 113.057 107.663 113.061C107.653 113.063 107.644 113.062 107.635 113.058ZM107.26 112.216H107.24C107.176 112.216 107.167 112.252 107.164 112.266C107.131 112.401 107.38 112.746 107.587 112.909C107.586 112.676 107.513 112.448 107.377 112.257C107.345 112.23 107.303 112.215 107.26 112.216Z" fill="#92E3A9"/>
<path d="M99.6576 112.787C99.4863 112.846 99.2997 112.846 99.1284 112.787C99.0895 112.767 99.0565 112.737 99.0325 112.7C99.0085 112.663 98.9943 112.621 98.9912 112.578C98.9877 112.55 98.9912 112.523 99.0015 112.497C99.0118 112.471 99.0285 112.449 99.05 112.431C99.274 112.233 100.19 112.431 100.293 112.47C100.303 112.473 100.312 112.478 100.318 112.486C100.324 112.494 100.327 112.504 100.327 112.514C100.327 112.525 100.325 112.535 100.319 112.544C100.314 112.552 100.306 112.56 100.296 112.564C100.09 112.656 99.8763 112.73 99.6576 112.787ZM99.2012 112.459C99.1692 112.465 99.1393 112.48 99.1144 112.5C99.1055 112.507 99.0986 112.516 99.0947 112.526C99.0907 112.536 99.0898 112.548 99.092 112.558C99.0938 112.587 99.103 112.615 99.1186 112.64C99.1343 112.665 99.1559 112.685 99.1816 112.699C99.33 112.776 99.6744 112.716 100.12 112.531C99.8197 112.456 99.5092 112.432 99.2012 112.459Z" fill="#92E3A9"/>
<path d="M100.288 112.564H100.265C99.9852 112.514 99.4252 112.197 99.4084 111.959C99.4084 111.904 99.4336 111.827 99.568 111.783C99.6134 111.767 99.6616 111.76 99.7097 111.763C99.7578 111.766 99.8048 111.778 99.848 111.799C100.15 111.946 100.31 112.476 100.318 112.5C100.32 112.509 100.32 112.517 100.318 112.526C100.315 112.534 100.311 112.541 100.304 112.547C100.3 112.554 100.294 112.56 100.288 112.564ZM99.624 111.866H99.596C99.5092 111.896 99.5092 111.932 99.5092 111.943C99.5092 112.086 99.9152 112.349 100.198 112.437C100.133 112.215 99.995 112.021 99.806 111.885C99.7498 111.857 99.685 111.85 99.624 111.866Z" fill="#92E3A9"/>
<path d="M96.2584 55.0261L93.338 56.3509L92.9992 57.1789L94.0772 57.8938C94.0772 57.8938 96.0932 57.6785 96.6672 56.4006L96.2584 55.0261Z" fill="#E58A7B"/>
<path d="M96.3816 56.7456C96.3163 56.1925 96.1311 55.6597 95.8384 55.1834L96.3004 54.8412C96.6479 55.39 96.8696 56.007 96.95 56.649L96.3816 56.7456Z" fill="black"/>
<path d="M96.88 55.418C96.9417 55.5138 96.9721 55.6259 96.9668 55.7392C96.9616 55.8525 96.9211 55.9615 96.8509 56.0513C96.7806 56.1411 96.684 56.2074 96.5741 56.2412C96.4642 56.275 96.3465 56.2746 96.2369 56.24C96.1273 56.2055 96.0311 56.1385 95.9615 56.0482C95.8919 55.9579 95.8522 55.8486 95.8478 55.7353C95.8434 55.6219 95.8746 55.51 95.937 55.4147C95.9995 55.3194 96.0902 55.2454 96.1968 55.2028C96.3165 55.1427 96.4554 55.1315 96.5833 55.1719C96.7112 55.2122 96.8179 55.3007 96.88 55.418Z" fill="black"/>
<path d="M91.364 57.4218L91.7532 57.8082L94.374 56.7042L93.338 56.3509L91.364 57.4218Z" fill="#E58A7B"/>
<path opacity="0.2" d="M102.617 107.869C102.634 107.869 103.015 108.923 103.015 108.923L99.1396 110.53L98.5292 109.409L102.617 107.869Z" fill="black"/>
<path opacity="0.2" d="M110.538 109.208C110.555 109.208 110.667 110.27 110.667 110.27H106.422L106.12 109.05L110.538 109.208Z" fill="black"/>
<path d="M109.883 44.0054C110.653 46.4536 107.643 49.8014 107.643 49.8014L103.485 48.1289C103.978 46.7139 104.546 45.3255 105.188 43.9696C106.464 41.2565 109.105 41.5352 109.883 44.0054Z" fill="#92E3A9"/>
<path opacity="0.2" d="M109.883 44.0054C110.653 46.4536 107.643 49.8014 107.643 49.8014L103.485 48.1289C103.978 46.7139 104.546 45.3255 105.188 43.9696C106.464 41.2565 109.105 41.5352 109.883 44.0054Z" fill="black"/>
<path d="M68.5664 19.4773H66.7772V19.7616H68.5664V19.4773Z" fill="#92E3A9"/>
<path d="M91.7275 30.7289L91.5109 35.4658L91.799 35.4786L92.0156 30.7417L91.7275 30.7289Z" fill="#92E3A9"/>
<path d="M91.1708 20.7524H58.1308L55.0564 88.5712H88.0964L91.1708 20.7524Z" fill="#92E3A9"/>
<path opacity="0.56" d="M90.1852 21.6853H57.1452L54.0708 89.5041H87.1108L90.1852 21.6853Z" fill="#FAFAFA"/>
<path opacity="0.07" d="M89.1996 22.6154H56.1596L53.0824 90.4342H86.1224L89.1996 22.6154Z" fill="#92E3A9"/>
<path d="M85.4392 52.1944H57.2376L57.0024 57.3832H85.204L85.4392 52.1944Z" fill="white"/>
<path d="M72.7468 48.4077H57.4084L57.3048 50.7288H72.6432L72.7468 48.4077Z" fill="#92E3A9"/>
<path d="M84.8036 66.1986H56.602L56.3668 71.3874H84.5684L84.8036 66.1986Z" fill="white"/>
<path opacity="0.47" d="M79.632 78.3951H60.6676L60.3848 84.6133H79.3492L79.632 78.3951Z" fill="#92E3A9"/>
<path d="M78.3636 85.5793H59.3992C59.3909 85.5814 59.3823 85.5814 59.374 85.5793C59.3712 85.5713 59.3712 85.5625 59.374 85.5545L59.654 79.3334C59.654 79.3292 59.6549 79.325 59.6566 79.3211C59.6583 79.3173 59.6608 79.3138 59.664 79.3109C59.6671 79.3081 59.6709 79.3059 59.675 79.3046C59.679 79.3032 59.6833 79.3027 59.6876 79.3031H78.652C78.6555 79.3014 78.6593 79.3005 78.6632 79.3005C78.6671 79.3005 78.6709 79.3014 78.6744 79.3031C78.6764 79.3064 78.6774 79.3102 78.6774 79.3141C78.6774 79.318 78.6764 79.3218 78.6744 79.3252L78.4 85.56C78.3966 85.5665 78.3913 85.5718 78.3848 85.5752C78.3783 85.5787 78.3709 85.5801 78.3636 85.5793ZM59.4328 85.5131H78.33L78.61 79.3583H59.7128L59.4328 85.5131Z" fill="white"/>
<path d="M69.4344 62.4119H56.7728L56.6692 64.7358H69.328L69.4344 62.4119Z" fill="#92E3A9"/>
<path d="M79.2708 35.4329C79.1984 36.943 78.6536 38.394 77.7112 39.5867C77.0136 40.4876 76.1158 41.219 75.0868 41.7247C74.0578 42.2304 72.925 42.497 71.7752 42.504C70.8461 42.511 69.9253 42.3304 69.0697 41.9733C68.214 41.6163 67.4416 41.0903 66.8 40.4279C66.1584 39.7654 65.6611 38.9805 65.3389 38.1215C65.0167 37.2624 64.8763 36.3474 64.9264 35.4329C65.0249 33.5351 65.8551 31.7461 67.2474 30.4317C68.6396 29.1173 70.4887 28.3769 72.4164 28.3618C73.3462 28.3532 74.268 28.5327 75.1247 28.8892C75.9813 29.2456 76.7548 29.7714 77.3972 30.4341C78.0395 31.0968 78.5373 31.8823 78.8595 32.7421C79.1818 33.6019 79.3218 34.5177 79.2708 35.4329Z" fill="white"/>
<path d="M79.9456 29.8411C79.9273 30.2427 79.7825 30.6286 79.5312 30.9451C79.3453 31.1844 79.1064 31.3787 78.8327 31.5131C78.559 31.6475 78.2578 31.7185 77.952 31.7207C77.6558 31.7225 77.3636 31.6527 77.101 31.5175C76.8384 31.3823 76.6134 31.1858 76.4456 30.9451C76.2234 30.6199 76.1135 30.2328 76.132 29.8411C76.1591 29.3373 76.3801 28.8625 76.7501 28.5138C77.12 28.1651 77.611 27.9685 78.1228 27.9643C78.3698 27.9621 78.6145 28.0097 78.8421 28.1043C79.0696 28.1989 79.2751 28.3384 79.4459 28.5142C79.6167 28.6901 79.7491 28.8985 79.8351 29.1267C79.921 29.3549 79.9586 29.598 79.9456 29.8411Z" fill="#92E3A9"/>
<path d="M60.2756 54.7888C60.2621 55.0112 60.1637 55.2203 60 55.3739C59.8363 55.5276 59.6196 55.6144 59.3936 55.6168C59.2845 55.618 59.1762 55.5973 59.0756 55.5557C58.9749 55.5141 58.884 55.4526 58.8084 55.375C58.7328 55.2974 58.6742 55.2053 58.6362 55.1045C58.5981 55.0036 58.5814 54.8962 58.5872 54.7888C58.5993 54.5659 58.6974 54.356 58.8614 54.2021C59.0253 54.0482 59.2428 53.9619 59.4692 53.9608C59.5782 53.9599 59.6863 53.981 59.7867 54.0227C59.8872 54.0644 59.9779 54.1259 60.0534 54.2034C60.1289 54.281 60.1876 54.3729 60.2258 54.4735C60.264 54.5742 60.2809 54.6814 60.2756 54.7888Z" fill="black"/>
<path d="M64.05 54.7888C64.0372 55.0114 63.9389 55.2209 63.7751 55.3747C63.6113 55.5285 63.3942 55.615 63.168 55.6168C63.0591 55.6177 62.9512 55.5966 62.8508 55.5548C62.7505 55.5131 62.6599 55.4515 62.5847 55.374C62.5094 55.2964 62.451 55.2045 62.4131 55.1038C62.3752 55.0032 62.3587 54.896 62.3644 54.7888C62.3765 54.5664 62.4742 54.3569 62.6376 54.2031C62.8009 54.0492 63.0177 53.9626 63.2436 53.9608C63.3527 53.9595 63.461 53.9803 63.5616 54.0219C63.6623 54.0635 63.7532 54.125 63.8288 54.2026C63.9043 54.2802 63.963 54.3722 64.001 54.4731C64.0391 54.5739 64.0557 54.6813 64.05 54.7888Z" fill="black"/>
<path d="M67.8272 54.7888C67.8144 55.0114 67.7161 55.2209 67.5523 55.3747C67.3885 55.5285 67.1714 55.615 66.9452 55.6168C66.8362 55.6176 66.7281 55.5966 66.6277 55.5548C66.5272 55.5131 66.4365 55.4516 66.361 55.3741C66.2855 55.2966 66.2268 55.2047 66.1886 55.104C66.1504 55.0034 66.1335 54.8961 66.1388 54.7888C66.1516 54.5661 66.2499 54.3566 66.4137 54.2029C66.5775 54.0491 66.7946 53.9625 67.0208 53.9608C67.1299 53.9595 67.2382 53.9803 67.3388 54.0219C67.4395 54.0635 67.5304 54.125 67.606 54.2026C67.6816 54.2802 67.7402 54.3722 67.7782 54.4731C67.8163 54.5739 67.833 54.6813 67.8272 54.7888Z" fill="black"/>
<path d="M59.64 68.793C59.6266 69.0154 59.5281 69.2245 59.3644 69.3782C59.2007 69.5318 58.984 69.6186 58.758 69.621C58.649 69.6219 58.5409 69.6008 58.4405 69.5591C58.34 69.5174 58.2493 69.4559 58.1738 69.3783C58.0983 69.3008 58.0396 69.2089 58.0014 69.1083C57.9632 69.0076 57.9463 68.9003 57.9516 68.793C57.9644 68.5704 58.0627 68.3609 58.2265 68.2071C58.3903 68.0533 58.6074 67.9668 58.8336 67.965C58.9426 67.9641 59.0507 67.9852 59.1511 68.0269C59.2516 68.0687 59.3424 68.1302 59.4179 68.2077C59.4934 68.2852 59.552 68.3771 59.5902 68.4778C59.6284 68.5784 59.6454 68.6857 59.64 68.793Z" fill="black"/>
<path d="M63.4144 68.793C63.4016 69.0152 63.3037 69.2243 63.1405 69.378C62.9773 69.5317 62.7609 69.6186 62.5352 69.621C62.4261 69.6223 62.3178 69.6015 62.2172 69.5599C62.1165 69.5183 62.0256 69.4568 61.95 69.3792C61.8744 69.3016 61.8158 69.2095 61.7778 69.1087C61.7397 69.0079 61.723 68.9004 61.7288 68.793C61.7416 68.5704 61.8399 68.3609 62.0037 68.2071C62.1675 68.0533 62.3846 67.9668 62.6108 67.965C62.7197 67.9641 62.8276 67.9852 62.9279 68.0269C63.0283 68.0687 63.1189 68.1303 63.1941 68.2078C63.2694 68.2854 63.3278 68.3773 63.3657 68.478C63.4036 68.5786 63.4201 68.6858 63.4144 68.793Z" fill="black"/>
<path d="M67.2 68.793C67.1872 69.0156 67.0889 69.2251 66.9251 69.3789C66.7613 69.5327 66.5442 69.6193 66.318 69.621C66.2091 69.6215 66.1012 69.6002 66.001 69.5583C65.9007 69.5164 65.8101 69.4549 65.7347 69.3775C65.6593 69.3 65.6006 69.2083 65.5622 69.1078C65.5239 69.0073 65.5067 68.9002 65.5116 68.793C65.525 68.5706 65.6235 68.3615 65.7872 68.2078C65.9509 68.0542 66.1676 67.9674 66.3936 67.965C66.5027 67.9637 66.611 67.9845 66.7116 68.0261C66.8123 68.0677 66.9032 68.1292 66.9788 68.2068C67.0544 68.2844 67.113 68.3765 67.151 68.4773C67.1891 68.5781 67.2057 68.6856 67.2 68.793Z" fill="black"/>
<path d="M70.9688 68.793C70.9554 69.0154 70.8569 69.2245 70.6932 69.3782C70.5295 69.5318 70.3128 69.6186 70.0868 69.621C69.9779 69.6215 69.87 69.6002 69.7698 69.5583C69.6695 69.5164 69.5789 69.4549 69.5035 69.3775C69.428 69.3 69.3694 69.2083 69.331 69.1078C69.2927 69.0073 69.2755 68.9002 69.2804 68.793C69.2938 68.5706 69.3923 68.3615 69.556 68.2078C69.7197 68.0542 69.9364 67.9674 70.1624 67.965C70.2714 67.9641 70.3795 67.9852 70.4799 68.0269C70.5804 68.0687 70.6711 68.1302 70.7466 68.2077C70.8221 68.2852 70.8808 68.3771 70.919 68.4778C70.9572 68.5784 70.9741 68.6857 70.9688 68.793Z" fill="black"/>
<path d="M74.76 68.793C74.7466 69.0154 74.6481 69.2245 74.4844 69.3782C74.3207 69.5318 74.104 69.6186 73.878 69.621C73.7689 69.6223 73.6606 69.6015 73.56 69.5599C73.4593 69.5183 73.3684 69.4568 73.2928 69.3792C73.2172 69.3016 73.1586 69.2095 73.1206 69.1087C73.0825 69.0079 73.0659 68.9004 73.0716 68.793C73.0844 68.5704 73.1827 68.3609 73.3465 68.2071C73.5103 68.0533 73.7274 67.9668 73.9536 67.965C74.0626 67.9641 74.1707 67.9852 74.2711 68.0269C74.3716 68.0687 74.4624 68.1302 74.5379 68.2077C74.6134 68.2852 74.672 68.3771 74.7102 68.4778C74.7484 68.5784 74.7653 68.6857 74.76 68.793Z" fill="black"/>
<path d="M74.1869 35.0646C75.3589 33.9349 75.4211 32.1242 74.3258 31.0202C73.2306 29.9162 71.3927 29.937 70.2207 31.0667C69.0488 32.1964 68.9866 34.0072 70.0818 35.1111C71.1771 36.2151 73.015 36.1943 74.1869 35.0646Z" fill="#92E3A9"/>
<path d="M77.7112 39.5867C77.0136 40.4876 76.1158 41.219 75.0868 41.7247C74.0578 42.2304 72.925 42.497 71.7752 42.504C70.6603 42.5133 69.5601 42.2521 68.5718 41.7433C67.5835 41.2346 66.7373 40.4939 66.108 39.5867C67.4688 38.2508 69.622 37.3787 72.0076 37.3787C74.3932 37.3787 76.4708 38.2508 77.7112 39.5867Z" fill="#92E3A9"/>
<path opacity="0.1" d="M74.1869 35.0646C75.3589 33.9349 75.4211 32.1242 74.3258 31.0202C73.2306 29.9162 71.3927 29.937 70.2207 31.0667C69.0488 32.1964 68.9866 34.0072 70.0818 35.1111C71.1771 36.2151 73.015 36.1943 74.1869 35.0646Z" fill="white"/>
<path opacity="0.1" d="M77.7112 39.5867C77.0136 40.4876 76.1158 41.219 75.0868 41.7247C74.0578 42.2304 72.925 42.497 71.7752 42.504C70.6603 42.5133 69.5601 42.2521 68.5718 41.7433C67.5835 41.2346 66.7373 40.4939 66.108 39.5867C67.4688 38.2508 69.622 37.3787 72.0076 37.3787C74.3932 37.3787 76.4708 38.2508 77.7112 39.5867Z" fill="white"/>
<path d="M36.5148 58.6334C36.2488 59.2075 35.9688 59.8396 35.7252 60.4523C35.4816 61.065 35.2324 61.697 35.0168 62.3263C34.5766 63.5665 34.2413 64.8404 34.0144 66.1351L33.9528 66.5408C33.9469 66.6104 33.9536 66.6805 33.9724 66.7478C34.0385 66.9766 34.1425 67.193 34.2804 67.3882C34.64 67.8935 35.0571 68.3565 35.5236 68.7682C36.0154 69.2191 36.5314 69.6438 37.0692 70.0405C37.6068 70.449 38.1724 70.8464 38.7296 71.2218L38.206 72.1906C36.8755 71.6191 35.6126 70.9055 34.44 70.0626C33.8144 69.6129 33.2498 69.086 32.76 68.4949C32.4697 68.1431 32.2433 67.7443 32.0908 67.3164C32.0021 67.0491 31.9568 66.7697 31.9564 66.4884C31.9564 66.4222 31.9564 66.3256 31.9564 66.2786V66.1434L31.9844 65.8674C32.1449 64.4295 32.4517 63.011 32.9 61.6336C33.1184 60.9546 33.3508 60.2784 33.6168 59.6188C33.8828 58.9591 34.1572 58.3133 34.496 57.6426L36.5148 58.6334Z" fill="#E58A7B"/>
<path d="M38.3348 71.0507L40.3144 70.0626L39.802 72.2044C39.802 72.2044 38.444 72.5797 37.814 71.9284L38.3348 71.0507Z" fill="#E58A7B"/>
<path d="M42.126 70.4131L41.5996 72.185L39.802 72.2044L40.3144 70.0626L42.126 70.4131Z" fill="#E58A7B"/>
<path d="M44.9204 48.3C45.0263 48.6825 45.1737 49.0526 45.36 49.404C45.3056 49.4649 45.2354 49.5101 45.1571 49.5348C45.0787 49.5596 44.995 49.563 44.9148 49.5448L44.9204 48.3Z" fill="#DF5753"/>
<path d="M44.8616 48.3166C44.9776 48.3166 45.0716 48.1745 45.0716 47.9992C45.0716 47.8239 44.9776 47.6818 44.8616 47.6818C44.7456 47.6818 44.6516 47.8239 44.6516 47.9992C44.6516 48.1745 44.7456 48.3166 44.8616 48.3166Z" fill="black"/>
<path d="M44.8 47.6928L45.2256 47.5741C45.2256 47.5741 45.0184 47.8998 44.8 47.6928Z" fill="black"/>
<path d="M39.452 50.3258C39.7068 51.6092 39.9616 53.9635 39.0488 54.8219C39.0488 54.8219 39.4072 56.1246 41.8292 56.1246C44.492 56.1246 43.1004 54.8219 43.1004 54.8219C41.6472 54.4796 41.6836 53.417 41.9384 52.4179L39.452 50.3258Z" fill="#E58A7B"/>
<path d="M38.7436 47.4002C38.878 49.5448 38.8892 50.4556 39.9868 51.5568C41.6416 53.2128 44.2848 52.5835 44.8028 50.4528C45.2704 48.5208 44.9736 45.3413 42.8428 44.4884C42.3751 44.2985 41.8659 44.2293 41.3635 44.2875C40.8611 44.3456 40.3821 44.5291 39.9717 44.8206C39.5613 45.1121 39.2331 45.502 39.0182 45.9534C38.8033 46.4048 38.7088 46.9028 38.7436 47.4002Z" fill="#E58A7B"/>
<path d="M38.9592 44.988C37.8672 45.3799 36.4112 45.0874 36.9824 48.4076C37.5872 51.9239 36.6576 53.0803 36.6576 53.0803C36.6576 53.0803 40.7988 53.9497 45.0268 53.0279C45.0268 53.0279 43.736 50.8033 44.0972 49.1639C44.5592 47.0939 44.1952 46.3294 44.1952 46.3294C44.1952 46.3294 40.4936 44.436 38.9592 44.988Z" fill="black"/>
<path d="M43.5792 48.518C43.5803 48.9258 43.6988 49.3249 43.9208 49.669C44.2176 50.1161 44.5676 49.945 44.6544 49.4702C44.7328 49.0535 44.674 48.3166 44.296 48.0295C43.918 47.7425 43.5848 48.024 43.5792 48.518Z" fill="#E58A7B"/>
<path d="M38.01 45.3496C37.6964 44.4802 39.1916 43.1416 42.3556 43.6936C45.5196 44.2456 45.6568 46.8427 45.6568 46.8427L45.0184 46.092L45.0464 46.8814L41.7956 47.4968L38.01 45.3496Z" fill="black"/>
<path d="M38.2788 54.9682C38.2601 54.8421 38.2921 54.7139 38.3679 54.6108C38.4438 54.5077 38.5575 54.4379 38.6848 54.4162C39.6704 54.2561 41.9104 53.9304 43.036 54.085C43.876 54.2009 44.0944 54.6811 44.1308 55.0758C44.1365 55.1449 44.1271 55.2144 44.1033 55.2797C44.0795 55.3449 44.0418 55.4044 43.9927 55.454C43.9436 55.5037 43.8843 55.5425 43.8188 55.5677C43.7533 55.5929 43.683 55.604 43.6128 55.6002L38.7464 55.3849C38.6317 55.3792 38.5225 55.3346 38.4373 55.2587C38.3521 55.1827 38.2961 55.0801 38.2788 54.9682Z" fill="#92E3A9"/>
<path opacity="0.6" d="M38.2788 54.9682C38.2601 54.8421 38.2921 54.7139 38.3679 54.6108C38.4438 54.5077 38.5575 54.4379 38.6848 54.4162C39.6704 54.2561 41.9104 53.9304 43.036 54.085C43.876 54.2009 44.0944 54.6811 44.1308 55.0758C44.1365 55.1449 44.1271 55.2144 44.1033 55.2797C44.0795 55.3449 44.0418 55.4044 43.9927 55.454C43.9436 55.5037 43.8843 55.5425 43.8188 55.5677C43.7533 55.5929 43.683 55.604 43.6128 55.6002L38.7464 55.3849C38.6317 55.3792 38.5225 55.3346 38.4373 55.2587C38.3521 55.1827 38.2961 55.0801 38.2788 54.9682Z" fill="black"/>
<path d="M41.0928 103.185L42.8988 104.422L45.92 100.384L44.114 99.1502L41.0928 103.185Z" fill="#E58A7B"/>
<path d="M36.8816 103.105L38.7884 104.176L41.4624 99.9065L39.5556 98.8356L36.8816 103.105Z" fill="#E58A7B"/>
<path d="M45.9172 100.384L44.3604 102.465L42.5544 101.231L44.1112 99.1502L45.9172 100.384Z" fill="#CF6F64"/>
<path d="M39.5528 98.8356L41.4624 99.9092L40.0848 102.109L38.1752 101.035L39.5528 98.8356Z" fill="#CF6F64"/>
<path d="M42.616 68.448C42.616 68.448 49.6664 77.2055 48.342 85.5821C47.2752 92.3468 41.0872 101.507 41.0872 101.507L38.178 100.083C40.2286 96.0329 41.9785 91.8414 43.414 87.5417C43.8567 86.2068 43.9859 84.7901 43.7918 83.3988C43.5978 82.0075 43.0856 80.6777 42.294 79.5101C38.7212 74.3682 32.998 77.429 36.848 68.448H42.616Z" fill="#92E3A9"/>
<path opacity="0.6" d="M42.616 68.448C42.616 68.448 49.6664 77.2055 48.342 85.5821C47.2752 92.3468 41.0872 101.507 41.0872 101.507L38.178 100.083C40.2286 96.0329 41.9785 91.8414 43.414 87.5417C43.8567 86.2068 43.9859 84.7901 43.7918 83.3988C43.5978 82.0075 43.0856 80.6777 42.294 79.5101C38.7212 74.3682 32.998 77.429 36.848 68.448H42.616Z" fill="black"/>
<path opacity="0.4" d="M46.074 74.0729L45.0492 73.0682C45.0492 73.1483 47.0344 85.2288 47.5916 88.6236C47.9204 87.6319 48.1722 86.617 48.3448 85.5876C49 81.478 47.6308 77.28 46.074 74.0729Z" fill="black"/>
<path d="M45.7632 68.448C45.7632 68.448 54.2528 79.4549 54.4936 86.054C54.6924 91.574 45.2536 102.269 45.2536 102.269L42.5096 100.519C42.5096 100.519 48.034 92.9237 49.4256 86.7192C48.888 80.5699 37.52 68.448 37.52 68.448H45.7632Z" fill="#92E3A9"/>
<path opacity="0.6" d="M45.7632 68.448C45.7632 68.448 54.2528 79.4549 54.4936 86.054C54.6924 91.574 45.2536 102.269 45.2536 102.269L42.5096 100.519C42.5096 100.519 48.034 92.9237 49.4256 86.7192C48.888 80.5699 37.52 68.448 37.52 68.448H45.7632Z" fill="black"/>
<path d="M35.2604 55.3132C34.3532 55.5257 33.4824 58.777 33.4824 58.777L37.03 61.1119C37.03 61.1119 38.2116 58.5396 37.7972 57.4135C37.3688 56.2405 36.4 55.0454 35.2604 55.3132Z" fill="#92E3A9"/>
<path opacity="0.2" d="M35.9548 57.408L35.7084 60.2425L37.0272 61.1147C37.3913 60.3066 37.6609 59.4603 37.8308 58.592L35.9548 57.408Z" fill="black"/>
<path d="M46.8132 55.3766C46.8132 55.3766 47.8604 55.7382 45.7632 68.4452H36.8424C36.9936 64.8572 36.9964 62.6492 35.2604 55.3132C36.5095 55.0594 37.7756 54.8952 39.0488 54.8219C40.3976 54.7265 41.7516 54.7265 43.1004 54.8219C44.842 54.9792 46.8132 55.3766 46.8132 55.3766Z" fill="#92E3A9"/>
<path d="M47.7204 57.408C47.922 57.96 48.1348 58.5534 48.3588 59.1247C48.5828 59.696 48.7956 60.2839 49.0224 60.8635L49.7084 62.5968L49.882 63.0301L49.9716 63.2454L50.0136 63.353C50.0136 63.3724 50.0136 63.3724 50.0136 63.3696C49.9624 63.2985 49.8954 63.24 49.8176 63.1985C49.7068 63.1342 49.5819 63.0973 49.4536 63.0908C49.3469 63.0876 49.2409 63.1074 49.1428 63.1488C49.014 63.2068 49.014 63.2316 49.0168 63.2288C49.0401 63.2104 49.0608 63.1891 49.0784 63.1654C49.2334 62.9648 49.3675 62.7493 49.4788 62.5223C49.6104 62.2684 49.7364 61.9979 49.8624 61.7246C50.1088 61.1726 50.3356 60.6013 50.5624 60.0245C50.7892 59.4476 51.0048 58.8653 51.2148 58.2774L51.8532 56.5165L52.9312 56.7925C52.7184 58.0511 52.444 59.2765 52.1136 60.524C51.954 61.145 51.7664 61.7605 51.5536 62.3815C51.4472 62.6934 51.3296 63.0025 51.1952 63.3199C51.0551 63.6644 50.8826 63.9952 50.68 64.308C50.6055 64.4133 50.5232 64.5129 50.4336 64.6061C50.2906 64.7583 50.1171 64.8796 49.924 64.9621C49.7527 65.0346 49.5671 65.0686 49.3808 65.0615C49.1721 65.0538 48.9688 64.994 48.79 64.8876C48.5791 64.7578 48.404 64.5786 48.2804 64.366C48.2384 64.2942 48.202 64.2224 48.1768 64.17L48.1236 64.0651L48.0172 63.8498L47.8044 63.422C47.5244 62.848 47.2444 62.2684 47.0008 61.686C46.7572 61.1036 46.4996 60.513 46.2588 59.9196C46.018 59.3262 45.8024 58.7328 45.598 58.0925L47.7204 57.408Z" fill="#E58A7B"/>
<path d="M46.8132 55.3766C47.8856 55.6278 49.0924 58.7521 49.0924 58.7521L45.9032 61.4266C45.9032 61.4266 43.8396 58.0207 44.2568 56.8974C44.6908 55.7272 45.4132 55.0482 46.8132 55.3766Z" fill="#92E3A9"/>
<path d="M52.36 55.5284L53.48 54.6066L54.2584 55.8017L53.6844 56.798C53.6844 56.798 52.7716 57.626 51.9652 57.2038C51.8372 56.9202 51.8065 56.6032 51.8778 56.3009C51.949 55.9986 52.1183 55.7274 52.36 55.5284Z" fill="#E58A7B"/>
<path d="M55.5016 54.6094L55.4176 54.9102L53.6452 55.2028L53.4716 54.6066L55.5016 54.6094Z" fill="#E58A7B"/>
<path d="M45.472 102.41L42.2744 100.373L42.8484 99.3904L46.4408 101.568L45.472 102.41Z" fill="#92E3A9"/>
<path d="M40.04 104.033C39.7594 103.999 39.4899 103.905 39.2504 103.757C39.2405 103.753 39.2319 103.747 39.2259 103.739C39.2198 103.73 39.2166 103.72 39.2166 103.71C39.2166 103.699 39.2198 103.689 39.2259 103.681C39.2319 103.673 39.2405 103.666 39.2504 103.663C39.3372 103.635 40.0904 103.406 40.3088 103.583C40.3333 103.603 40.352 103.629 40.3628 103.659C40.3736 103.688 40.3763 103.72 40.3704 103.751C40.3665 103.801 40.3498 103.849 40.3219 103.89C40.2939 103.932 40.2557 103.966 40.2108 103.989C40.1584 104.017 40.0997 104.032 40.04 104.033ZM39.41 103.729C39.76 103.906 40.04 103.969 40.1744 103.903C40.2037 103.887 40.2283 103.864 40.2459 103.836C40.2636 103.808 40.2736 103.776 40.2752 103.743C40.2752 103.699 40.2752 103.679 40.25 103.668C40.1324 103.575 39.7124 103.646 39.4044 103.729H39.41Z" fill="black"/>
<path d="M39.27 103.776C39.2552 103.776 39.2411 103.77 39.2308 103.759C39.2266 103.752 39.2244 103.743 39.2244 103.735C39.2244 103.726 39.2266 103.717 39.2308 103.71C39.2308 103.685 39.4128 103.086 39.6984 102.951C39.7349 102.934 39.7745 102.926 39.8146 102.926C39.8547 102.926 39.8943 102.934 39.9308 102.951C39.9701 102.963 40.0041 102.988 40.0275 103.021C40.0508 103.055 40.0621 103.095 40.0596 103.136C40.04 103.384 39.5276 103.726 39.2924 103.784L39.27 103.776ZM39.8132 103.023C39.7859 103.023 39.7592 103.03 39.7348 103.042C39.5612 103.125 39.4184 103.448 39.3484 103.644C39.5948 103.541 39.9336 103.271 39.9448 103.119C39.9448 103.094 39.9448 103.064 39.8804 103.036C39.8594 103.025 39.8367 103.018 39.8132 103.014V103.023Z" fill="black"/>
<path d="M44.0356 105.225C43.7192 105.225 43.2796 104.825 43.0388 104.579C43.0326 104.571 43.0293 104.561 43.0293 104.55C43.0293 104.54 43.0326 104.53 43.0388 104.521C43.0443 104.512 43.0522 104.505 43.0615 104.5C43.0709 104.495 43.0814 104.493 43.092 104.494C43.204 104.494 44.1756 104.637 44.3128 104.908C44.3273 104.932 44.335 104.959 44.335 104.988C44.335 105.016 44.3273 105.043 44.3128 105.068C44.2922 105.11 44.2611 105.146 44.2224 105.173C44.1837 105.2 44.1387 105.217 44.0916 105.222L44.0356 105.225ZM43.2236 104.618C43.5764 104.955 43.8872 105.142 44.0636 105.12C44.0945 105.116 44.1239 105.105 44.1493 105.087C44.1747 105.069 44.1952 105.045 44.2092 105.018C44.2155 105.009 44.2188 104.998 44.2188 104.986C44.2188 104.975 44.2155 104.964 44.2092 104.955C44.1364 104.805 43.6184 104.679 43.2236 104.618Z" fill="black"/>
<path d="M43.2544 104.604C43.1916 104.606 43.1287 104.601 43.0668 104.59C43.0582 104.589 43.05 104.585 43.0431 104.58C43.0363 104.575 43.0309 104.568 43.0276 104.56C43.0234 104.552 43.0212 104.543 43.0212 104.534C43.0212 104.525 43.0234 104.516 43.0276 104.507C43.0444 104.488 43.4224 104.038 43.7808 104.008C43.8823 104 43.9828 104.032 44.0608 104.096C44.17 104.19 44.1644 104.273 44.1364 104.325C44.0664 104.513 43.582 104.604 43.2544 104.604ZM43.1816 104.502C43.4952 104.518 43.9964 104.416 44.0608 104.281C44.0608 104.281 44.0832 104.237 44.0104 104.176C43.9814 104.151 43.9476 104.133 43.911 104.121C43.8744 104.11 43.8358 104.106 43.7976 104.11C43.5562 104.176 43.3412 104.314 43.1816 104.505V104.502Z" fill="black"/>
<path d="M39.3456 103.478L36.9712 102.816C36.9303 102.803 36.8862 102.806 36.8474 102.824C36.8087 102.842 36.778 102.873 36.7612 102.912L35.9604 104.687C35.9416 104.732 35.9328 104.781 35.9345 104.83C35.9362 104.879 35.9484 104.927 35.9704 104.971C35.9923 105.015 36.0235 105.054 36.0618 105.086C36.1002 105.117 36.1448 105.14 36.1928 105.153C37.0328 105.369 37.436 105.429 38.4804 105.725C39.1244 105.901 40.0428 106.23 40.9304 106.478C41.818 106.726 42.1148 105.874 41.7704 105.691C40.2136 104.88 40.0904 104.311 39.6648 103.704C39.5886 103.594 39.4756 103.514 39.3456 103.478Z" fill="#92E3A9"/>
<path d="M43.1032 104.256L41.076 102.876C41.0416 102.852 40.9993 102.84 40.9569 102.844C40.9146 102.848 40.8753 102.868 40.8464 102.898L39.5024 104.322C39.4696 104.359 39.4452 104.403 39.4307 104.449C39.4163 104.496 39.412 104.546 39.4184 104.594C39.4248 104.643 39.4415 104.689 39.4676 104.731C39.4937 104.773 39.5284 104.808 39.5696 104.836C40.2836 105.308 40.6532 105.498 41.5464 106.108C42.1064 106.484 43.19 107.317 43.946 107.836C44.702 108.355 45.2648 107.643 44.996 107.361C43.792 106.094 43.5288 105.3 43.33 104.579C43.2955 104.448 43.2151 104.334 43.1032 104.256Z" fill="#92E3A9"/>
<path d="M41.4596 101.689L37.8056 99.8982L38.1836 98.9212L42.0868 100.809L41.4596 101.689Z" fill="#92E3A9"/>
<path d="M36.708 67.9291L36.4 68.724C36.3692 68.7847 36.442 68.8482 36.5456 68.8482H45.808C45.8892 68.8482 45.9564 68.8096 45.962 68.7599L46.0404 67.9705C46.0404 67.9181 45.976 67.8712 45.8892 67.8712H36.8536C36.8264 67.8686 36.799 67.8726 36.7736 67.8827C36.7483 67.8928 36.7258 67.9087 36.708 67.9291Z" fill="#92E3A9"/>
<path opacity="0.4" d="M36.708 67.9291L36.4 68.724C36.3692 68.7847 36.442 68.8482 36.5456 68.8482H45.808C45.8892 68.8482 45.9564 68.8096 45.962 68.7599L46.0404 67.9705C46.0404 67.9181 45.976 67.8712 45.8892 67.8712H36.8536C36.8264 67.8686 36.799 67.8726 36.7736 67.8827C36.7483 67.8928 36.7258 67.9087 36.708 67.9291Z" fill="white"/>
<path d="M38.1668 68.9255H37.9232C37.8756 68.9255 37.8392 68.9006 37.842 68.8703L37.9568 67.8463C37.9568 67.8187 38.0016 67.7939 38.0492 67.7939H38.2928C38.3404 67.7939 38.3768 67.8187 38.374 67.8463L38.2592 68.8703C38.2564 68.9006 38.2144 68.9255 38.1668 68.9255Z" fill="#92E3A9"/>
<path d="M43.8788 68.9255H43.638C43.5904 68.9255 43.554 68.9006 43.5568 68.8703L43.6688 67.8463C43.6688 67.8187 43.7164 67.7939 43.764 67.7939H44.0048C44.0524 67.7939 44.0916 67.8187 44.086 67.8463L43.974 68.8703C43.96 68.9006 43.9292 68.9255 43.8788 68.9255Z" fill="#92E3A9"/>
<g style="mix-blend-mode:multiply">
<path d="M37.954 115.666C42.0968 115.666 45.4552 115.426 45.4552 115.131C45.4552 114.835 42.0968 114.595 37.954 114.595C33.8112 114.595 30.4528 114.835 30.4528 115.131C30.4528 115.426 33.8112 115.666 37.954 115.666Z" fill="#F5F5F5"/>
</g>
<path d="M42.5236 114.374C41.1964 113.994 39.7236 113.505 38.8332 112.994C38.808 112.978 38.78 112.97 38.7548 112.956V107.033H41.44C41.6438 107.021 41.8353 106.933 41.9754 106.786C42.1155 106.64 42.1935 106.446 42.1935 106.245C42.1935 106.044 42.1155 105.85 41.9754 105.703C41.8353 105.557 41.6438 105.469 41.44 105.457H38.7688V78.4585H37.156V105.457H34.4876C34.3786 105.45 34.2695 105.466 34.1669 105.503C34.0643 105.54 33.9704 105.597 33.891 105.67C33.8116 105.744 33.7483 105.833 33.705 105.932C33.6618 106.031 33.6395 106.137 33.6395 106.245C33.6395 106.352 33.6618 106.459 33.705 106.558C33.7483 106.656 33.8116 106.745 33.891 106.819C33.9704 106.893 34.0643 106.95 34.1669 106.987C34.2695 107.023 34.3786 107.039 34.4876 107.033H37.156V112.947C37.1308 112.947 37.1056 112.97 37.0804 112.986C36.176 113.505 34.7144 113.994 33.3872 114.366C33.2975 114.393 33.2206 114.45 33.1702 114.528C33.1198 114.606 33.0994 114.699 33.1126 114.79C33.1258 114.882 33.1717 114.966 33.2421 115.026C33.3125 115.087 33.4027 115.121 33.4964 115.122H42.4144C42.5039 115.116 42.5886 115.08 42.6544 115.02C42.7201 114.96 42.763 114.879 42.7757 114.792C42.7885 114.704 42.7705 114.615 42.7246 114.539C42.6787 114.463 42.6077 114.405 42.5236 114.374Z" fill="#E0E0E0"/>
<path d="M42.9352 75.7096H32.9784C32.1774 75.7096 31.528 76.3497 31.528 77.1392V80.0566C31.528 80.8462 32.1774 81.4862 32.9784 81.4862H42.9352C43.7362 81.4862 44.3856 80.8462 44.3856 80.0566V77.1392C44.3856 76.3497 43.7362 75.7096 42.9352 75.7096Z" fill="#92E3A9"/>
<path d="M32.886 81.489V81.9913C32.886 82.4053 33.3424 82.742 33.9024 82.742H42.0224C42.5824 82.742 43.0388 82.4053 43.0388 81.9913V81.489H32.886Z" fill="#92E3A9"/>
<path opacity="0.3" d="M32.886 81.489V81.9913C32.886 82.4053 33.3424 82.742 33.9024 82.742H42.0224C42.5824 82.742 43.0388 82.4053 43.0388 81.9913V81.489H32.886Z" fill="white"/>
</svg>
