<svg xmlns="http://www.w3.org/2000/svg" viewBox="0 0 500 500"><g id="freepik--background-simple--inject-3"><path d="M252.72,72.54c121.14-3.27,168,60,164.18,139.19s-77,176.49-169.79,176.49S77,286.13,83.63,194.76,164.77,74.91,252.72,72.54Z" style="fill:#489060"></path><path d="M252.72,72.54c121.14-3.27,168,60,164.18,139.19s-77,176.49-169.79,176.49S77,286.13,83.63,194.76,164.77,74.91,252.72,72.54Z" style="fill:#fff;opacity:0.9"></path></g><g id="freepik--Shadow--inject-3"><ellipse id="freepik--path--inject-3" cx="250" cy="416.24" rx="193.89" ry="11.32" style="fill:#f5f5f5"></ellipse></g><g id="freepik--Plant--inject-3"><path d="M91.6,391.54s-5-10.8.7-21.45,7.3-13.17,3.69-15.35-5.26,8.52-5.26,8.52a24,24,0,0,1-.53-15.07c2.51-7.71,4.09-20.26.66-21.6S90.2,342.24,87.23,348a49.82,49.82,0,0,1-2.91-12.64c-.41-6.19.23-16.08-2.48-18.61s-4.44-.78-1.78,12.88a142.9,142.9,0,0,1,2.64,24.76S76.82,336.51,72.88,336s-3.94,5.28-.56,10.31,9.88,14.05,11,18.69c0,0-6.45-13.48-12.25-9.35s5,12.28,9.89,15.22,8.19,21.4,8.19,21.4Z" style="fill:#489060"></path><path d="M91.6,391.54s-5-10.8.7-21.45,7.3-13.17,3.69-15.35-5.26,8.52-5.26,8.52a24,24,0,0,1-.53-15.07c2.51-7.71,4.09-20.26.66-21.6S90.2,342.24,87.23,348a49.82,49.82,0,0,1-2.91-12.64c-.41-6.19.23-16.08-2.48-18.61s-4.44-.78-1.78,12.88a142.9,142.9,0,0,1,2.64,24.76S76.82,336.51,72.88,336s-3.94,5.28-.56,10.31,9.88,14.05,11,18.69c0,0-6.45-13.48-12.25-9.35s5,12.28,9.89,15.22,8.19,21.4,8.19,21.4Z" style="opacity:0.2;isolation:isolate"></path><path d="M87.69,396s4.82-10.88-1-21.45-7.45-13-3.87-15.29,5.36,8.44,5.36,8.44a24.07,24.07,0,0,0,.35-15.07c-2.6-7.67-4.33-20.2-.92-21.6s.85,15.65,3.89,21.4a50.13,50.13,0,0,0,2.76-12.68c.34-6.2-.42-16.07,2.25-18.65s4.43-.85,1.94,12.85a143,143,0,0,0-2.35,24.8s5.67-18,9.6-18.58,4,5.22.69,10.3-9.72,14.2-10.73,18.85c0,0,6.29-13.58,12.14-9.53s-4.9,12.35-9.7,15.37-7.94,21.51-7.94,21.51Z" style="fill:#489060"></path><polygon points="109.93 388.22 70.09 388.22 73.31 416.73 106.7 416.73 109.93 388.22" style="fill:#263238"></polygon></g><g id="freepik--Character--inject-3"><path d="M352.47,296.36H344s-11.2,19.09-20.92,18c-7.69-.9-11.84-14.92-11.84-14.92l-5.28.3s2.73,18.18,15.51,21.36C338.71,325.36,352.47,296.36,352.47,296.36Z" style="fill:#263238"></path><path d="M352.47,296.36a70.79,70.79,0,0,1-4.3,7.49l-.46.71c-.91,1.37-1.95,2.82-3.08,4.27l-.53.67a51.2,51.2,0,0,1-3.63,4.08l-.61.6a35.91,35.91,0,0,1-4.28,3.56l-.71.48a23,23,0,0,1-3.89,2l-.8.29a15.06,15.06,0,0,1-5.77.91,8.08,8.08,0,0,1-.85-.05,13.24,13.24,0,0,1-2.12-.36,14.91,14.91,0,0,1-3.83-1.54,8,8,0,0,1-.74-.44,17.87,17.87,0,0,1-3.74-3.24c-.19-.21-.38-.43-.56-.65a26.17,26.17,0,0,1-2.75-4.15c-.14-.25-.28-.51-.4-.77a39.28,39.28,0,0,1-3.49-10.57l5.28-.3a40.19,40.19,0,0,0,3,7.08q.19.38.42.75a24.1,24.1,0,0,0,2.09,3c.18.23.37.45.56.66a12.75,12.75,0,0,0,2,1.83,6.54,6.54,0,0,0,.73.48,7.47,7.47,0,0,0,3,1.08l.3,0a8,8,0,0,0,.85,0,9.14,9.14,0,0,0,2.72-.55c.27-.09.53-.2.79-.31a15.92,15.92,0,0,0,2.57-1.42c.24-.15.47-.31.7-.48a30.42,30.42,0,0,0,3.07-2.58c.21-.19.42-.39.62-.6,1.1-1.08,2.14-2.24,3.1-3.39l.55-.66c1.05-1.29,2-2.55,2.8-3.68l.49-.69c1.48-2.14,2.36-3.64,2.36-3.64Z" style="fill:#fff;opacity:0.2"></path><path d="M312,301.73l-4.94,2.73s-3.95-8.1-2.39-15.22l8.8-2.2A32.24,32.24,0,0,1,312,301.73Z" style="fill:#489060"></path><path d="M348.17,303.85l-.46.71-6.59-3.87.49-.69Z" style="opacity:0.2;isolation:isolate"></path><path d="M344.63,308.83l-.53.67L337.77,305l.55-.66Z" style="opacity:0.2;isolation:isolate"></path><path d="M340.47,313.58l-.61.6L334.05,309c.21-.19.42-.39.62-.6Z" style="opacity:0.2;isolation:isolate"></path><path d="M335.58,317.74l-.71.48-4.59-6.14c.24-.15.47-.31.7-.48Z" style="opacity:0.2;isolation:isolate"></path><path d="M331,320.27l-.8.29-3.26-6.75c.27-.09.53-.2.79-.31Z" style="opacity:0.2;isolation:isolate"></path><path d="M324.41,321.47a8.08,8.08,0,0,1-.85-.05l-.21-7.07a8,8,0,0,0,.85,0Z" style="opacity:0.2;isolation:isolate"></path><path d="M320,313.24l-2.43,6.28a8,8,0,0,1-.74-.44l2.44-6.32A6.54,6.54,0,0,0,320,313.24Z" style="opacity:0.2;isolation:isolate"></path><path d="M317.3,310.93l-4.17,4.91c-.19-.21-.38-.43-.56-.65l4.17-4.92C316.92,310.5,317.11,310.72,317.3,310.93Z" style="opacity:0.2;isolation:isolate"></path><path d="M314.65,307.23,309.82,311c-.14-.25-.28-.51-.4-.77l4.81-3.79Q314.43,306.86,314.65,307.23Z" style="opacity:0.2;isolation:isolate"></path><path d="M328.23,295.63a1.28,1.28,0,0,1-1.31,1.46H312.45a1.68,1.68,0,0,1-1.63-1.46l-3.23-28.55a1.44,1.44,0,0,1,1.3-1.65h14.47a1.87,1.87,0,0,1,1.64,1.65Z" style="fill:#263238"></path><path d="M323.4,266.89l3.27,28.83a1.1,1.1,0,0,1-1.14,1.37H313.26c-.82,0-2.33-.46-2.42-1.27l-3.28-28.93c-.09-.81,1.32-1.46,2.14-1.46H322A1.5,1.5,0,0,1,323.4,266.89Z" style="fill:#fff;opacity:0.5"></path><ellipse cx="325.24" cy="386.42" rx="23.64" ry="30.31" style="fill:#263238"></ellipse><ellipse cx="330.9" cy="386.42" rx="16.62" ry="21.31" style="opacity:0.2;isolation:isolate"></ellipse><path d="M415.24,370.77l-18.46,19.39-59-2.7L324.4,372.9l8.25-19a3,3,0,0,1,2.77-1.82h14.83a3,3,0,0,1,2.21,1l.89,1,4.12,4.41a3,3,0,0,0,2.21,1H371.1a3,3,0,0,0,1.63-.47l9.91-6.34a3,3,0,0,1,1.62-.47H404.6a3,3,0,0,1,2.74,1.74Z" style="fill:#489060"></path><path d="M376.79,373l9.93-16.71a3.05,3.05,0,0,1,2.62-1.49h14.32a3,3,0,0,1,2.81,1.87l6.06,14.47-8.18,14.25-21.23-.79-6.33-12.39" style="opacity:0.2;isolation:isolate"></path><path d="M382.64,352.54l-8.56,14.34a3.38,3.38,0,0,1-2.9,1.65H334a2.09,2.09,0,0,1-1.93-2.89l4.2-10.07a2.61,2.61,0,0,1,2.39-1.59h14.66l4.12,4.41a3,3,0,0,0,2.21,1H371.1a3,3,0,0,0,1.63-.47Z" style="opacity:0.2;isolation:isolate"></path><path d="M399.05,404.15H337.28a9.09,9.09,0,0,1-6.94-3.22L320,388.68a9,9,0,0,1-2.13-5.84v-8.43a3.64,3.64,0,0,1,3.65-3.64h77.5a3.64,3.64,0,0,1,3.64,3.64v26.1A3.64,3.64,0,0,1,399.05,404.15Z" style="fill:#263238"></path><path d="M402.69,374.41v26.1a3.64,3.64,0,0,1-3.64,3.64H337.28a9.09,9.09,0,0,1-6.94-3.22L320,388.68a9,9,0,0,1-2.13-5.84v-8.43a3.64,3.64,0,0,1,3.65-3.64h77.5A3.64,3.64,0,0,1,402.69,374.41Z" style="fill:#fff;opacity:0.30000000000000004"></path><path d="M402.69,374.41v26.1a3.64,3.64,0,0,1-3.64,3.64h-8.77a9.09,9.09,0,0,1-6.94-3.22L373,388.68a9,9,0,0,1-2.13-5.84v-8.43a3.64,3.64,0,0,1,3.65-3.64h24.5A3.64,3.64,0,0,1,402.69,374.41Z" style="opacity:0.2;isolation:isolate"></path><path d="M347.87,404.15l-9.44-12.34a10.48,10.48,0,0,0-7.27-3.84,2.72,2.72,0,0,0-1.67.45h0l-.93.69h0c-.84.62-.81,1.84.27,3.25l9.35,12.22a2.13,2.13,0,0,0,1.69.83h9.48a1.28,1.28,0,0,0,1.28-1.25h-2.76Z" style="fill:#263238"></path><path d="M330.17,388.67h0c-2.3,0-2.9,1.65-1.34,3.68l9.35,12.22a2.13,2.13,0,0,0,1.69.83H348a1.74,1.74,0,0,1-1.39-.68l-9.5-12.37A10.07,10.07,0,0,0,330.17,388.67Z" style="fill:#fff;opacity:0.2"></path><path d="M362.07,404.15l-9.44-12.34a10.46,10.46,0,0,0-7.27-3.84,2.72,2.72,0,0,0-1.67.45h0l-.93.69h0c-.84.62-.81,1.84.27,3.25l9.35,12.22a2.14,2.14,0,0,0,1.69.83h9.48a1.28,1.28,0,0,0,1.28-1.25h-2.76Z" style="fill:#263238"></path><path d="M344.37,388.67h0c-2.3,0-2.89,1.65-1.34,3.68l9.35,12.22a2.14,2.14,0,0,0,1.69.83h8.16a1.74,1.74,0,0,1-1.39-.68l-9.49-12.37A10.11,10.11,0,0,0,344.37,388.67Z" style="fill:#fff;opacity:0.2"></path><path d="M376.27,404.15l-9.44-12.34a10.46,10.46,0,0,0-7.27-3.84,2.74,2.74,0,0,0-1.67.45h0l-.93.69h0c-.84.62-.81,1.84.27,3.25l9.35,12.22a2.14,2.14,0,0,0,1.69.83h9.48a1.28,1.28,0,0,0,1.28-1.25h-2.76Z" style="fill:#263238"></path><path d="M358.57,388.67h0c-2.3,0-2.89,1.65-1.34,3.68l9.35,12.22a2.14,2.14,0,0,0,1.69.83h8.16a1.76,1.76,0,0,1-1.39-.68l-9.49-12.37A10.09,10.09,0,0,0,358.57,388.67Z" style="fill:#fff;opacity:0.2"></path><ellipse cx="411.24" cy="386.42" rx="23.64" ry="30.31" style="fill:#263238"></ellipse><ellipse cx="416.9" cy="386.42" rx="16.62" ry="21.31" style="fill:#489060"></ellipse><path d="M432.06,395.14c-2.59,7.42-8.4,12.59-15.16,12.59-9.18,0-16.62-9.54-16.62-21.31,0-8.29,3.69-15.47,9.08-19a26.25,26.25,0,0,0-1.46,8.73c0,11.76,7.44,21.31,16.62,21.31A13.61,13.61,0,0,0,432.06,395.14Z" style="opacity:0.2;isolation:isolate"></path><path d="M349.92,339.74v20.63a1.92,1.92,0,0,0,1.92,1.92h21.87a1.93,1.93,0,0,0,1.45-.67l7.21-8.34a3.5,3.5,0,0,1,2.65-1.21h2.92V339.74Z" style="fill:#263238"></path><path d="M387.94,339.74v12.33H385a3.45,3.45,0,0,0-2,.61,3.22,3.22,0,0,0-.68.6l-2.42,2.8-.74.85-2.93,3.4-.75.86-.37.43a1.93,1.93,0,0,1-1.45.67H351.84a1.93,1.93,0,0,1-1.74-1.1,2,2,0,0,1-.18-.82V339.74Z" style="fill:#fff;opacity:0.30000000000000004"></path><rect x="349.92" y="343.32" width="38.02" height="0.86" style="opacity:0.2;isolation:isolate"></rect><rect x="349.92" y="347.57" width="38.02" height="0.86" style="opacity:0.2;isolation:isolate"></rect><path d="M387.94,351.83v.24H385a3.45,3.45,0,0,0-2,.61H349.92v-.85Z" style="opacity:0.2;isolation:isolate"></path><polygon points="379.95 356.08 379.21 356.93 349.92 356.93 349.92 356.08 379.95 356.08" style="opacity:0.2;isolation:isolate"></polygon><path d="M376.28,360.33l-.75.86H350.1a2,2,0,0,1-.18-.82v0Z" style="opacity:0.2;isolation:isolate"></path><path d="M387.94,339.74v4.57c-5.95,1.5-23.22,5.55-38,6V339.74Z" style="opacity:0.2;isolation:isolate"></path><rect x="354.31" y="276.91" width="29.07" height="16.08" style="fill:#263238"></rect><rect x="354.31" y="276.91" width="29.07" height="16.08" style="fill:#fff;opacity:0.30000000000000004"></rect><rect x="354.31" y="282.47" width="29.07" height="0.8" style="opacity:0.2;isolation:isolate"></rect><rect x="354.31" y="285.98" width="29.07" height="0.8" style="opacity:0.2;isolation:isolate"></rect><rect x="354.31" y="289.48" width="29.07" height="0.8" style="opacity:0.2;isolation:isolate"></rect><path d="M383.38,276.91V281c-7.4,2.65-19.64,6.41-29.07,6.07V276.91Z" style="opacity:0.2;isolation:isolate"></path><path d="M395.41,231.11H344.56a11.12,11.12,0,0,0-11.12,11.12v28.49a11.12,11.12,0,0,0,11.12,11.11h50.85a11.12,11.12,0,0,0,11.12-11.11V242.23A11.12,11.12,0,0,0,395.41,231.11Z" style="fill:#489060"></path><path d="M406.53,242.23v28.49a11.11,11.11,0,0,1-11.12,11.11h-20a11.11,11.11,0,0,0,11.12-11.11V242.23a11.11,11.11,0,0,0-11.12-11.11h20A11.11,11.11,0,0,1,406.53,242.23Z" style="opacity:0.2;isolation:isolate"></path><rect x="337.76" y="236.02" width="43.84" height="40.9" rx="6.8" style="fill:#263238"></rect><rect x="399.53" y="217.04" width="1" height="33.12" style="fill:#263238"></rect><path d="M409.1,256.47a12.43,12.43,0,0,1-1.05,5,10.51,10.51,0,0,1-2,3.05,8.21,8.21,0,0,1-6,2.75c-5,0-9.06-4.85-9.06-10.85S395,245.62,400,245.62a8.31,8.31,0,0,1,6.06,2.77,10.67,10.67,0,0,1,2,3.05A12.53,12.53,0,0,1,409.1,256.47Z" style="fill:#489060"></path><g style="opacity:0.4"><path d="M403.17,264.26c-3.55,0-6.43-3.49-6.43-7.79s2.88-7.78,6.43-7.78a6,6,0,0,1,4.89,2.75,10.67,10.67,0,0,0-2-3.05,6.48,6.48,0,0,0-2.92-.7c-4.1,0-7.43,3.94-7.43,8.78s3.33,8.79,7.43,8.79a6.35,6.35,0,0,0,2.89-.69,10.51,10.51,0,0,0,2-3.05A6,6,0,0,1,403.17,264.26Z"></path></g><path d="M370,250.18c0,1.76-.78,3.18-1.75,3.18s-1.76-1.42-1.76-3.18.79-3.18,1.76-3.18S370,248.42,370,250.18Z" style="fill:#fff"></path><path d="M351,250.16c0,1.76-.79,3.18-1.76,3.18s-1.75-1.42-1.75-3.18.78-3.18,1.75-3.18S351,248.4,351,250.16Z" style="fill:#fff"></path><path d="M358.65,264.93a53.4,53.4,0,0,1,4.81,6l1.22-.58c5.49-2.7,7.15-5.76,7.32-8.34a7.94,7.94,0,0,0-.72-3.67,7.69,7.69,0,0,0-1.1-1.83c-2.05,3.17-7,6.07-9.67,7.52C359.38,264.6,358.65,264.93,358.65,264.93Z" style="fill:#fff;opacity:0.4"></path><path d="M360.51,264l1.46,1.72c5.17-2.56,8.46-5,9.31-7.41a7.69,7.69,0,0,0-1.1-1.83C368.13,259.64,363.2,262.54,360.51,264Z" style="fill:#fff"></path><path d="M364.68,270.31c5.49-2.7,7.15-5.76,7.32-8.34a19.75,19.75,0,0,0-5.51,4.2A7.35,7.35,0,0,0,364.68,270.31Z" style="fill:#489060"></path><path d="M404.35,301.88v29.81a10.68,10.68,0,0,1-10.69,10.68H346.2a10.68,10.68,0,0,1-10.68-10.68V301.88A10.68,10.68,0,0,1,346.2,291.2h47.46A10.68,10.68,0,0,1,404.35,301.88Z" style="fill:#489060"></path><path d="M404.35,301.88v29.81a10.68,10.68,0,0,1-10.69,10.68H388.2a10.68,10.68,0,0,1-10.68-10.68V301.88A10.68,10.68,0,0,1,388.2,291.2h5.46A10.68,10.68,0,0,1,404.35,301.88Z" style="opacity:0.2;isolation:isolate"></path><polygon points="329.62 298.28 329.62 289.88 326.29 283.8 326.68 292.99 329.62 298.28" style="fill:#263238"></polygon><path d="M304.69,289l1.09-1.79,1.78-.93v-2.06l3.3-3.26,2.17,3.16L312,285l-1.29-.56-.25,1.47h1.66l1.62,4.73-1,.77.43,2.32-2.47,1.58-2.57-1,.65-1.59S304.69,293.09,304.69,289Z" style="fill:#263238"></path><path d="M391.82,298.35h0a4.58,4.58,0,0,1,4.32,6c-2.66,7.9-10.44,20.61-33,20.61-24.89,0-39.25-22.3-39.25-22.3l5.71-4.43s12.55,18.57,33.3,18.57c17.14,0,22.81-10.18,24.59-15.43A4.54,4.54,0,0,1,391.82,298.35Z" style="fill:#263238"></path><path d="M396.14,304.4a29.82,29.82,0,0,1-1.25,3.12c-.11.26-.23.52-.37.78a28.55,28.55,0,0,1-3,4.82,8.19,8.19,0,0,1-.53.67,27.22,27.22,0,0,1-5.77,5.29l-.71.48a31.29,31.29,0,0,1-6.87,3.28l-.82.27a41.18,41.18,0,0,1-7.7,1.58l-.85.09c-1.61.15-3.31.23-5.1.23-.85,0-1.68,0-2.5-.07l-.86-.07a41,41,0,0,1-6.65-1.1l-.84-.21a45,45,0,0,1-7.35-2.74l-.76-.38a48.68,48.68,0,0,1-6.76-4.09c-.24-.16-.47-.33-.7-.5a56.79,56.79,0,0,1-5.91-5l-.61-.6a51.39,51.39,0,0,1-6.31-7.52l5.71-4.43a44,44,0,0,0,5.54,6.33l.62.59a48.67,48.67,0,0,0,5,4.09c.23.17.46.34.7.5a44.08,44.08,0,0,0,5.91,3.44l.78.37a37.63,37.63,0,0,0,5.87,2.08c.27.08.55.15.83.21a34.13,34.13,0,0,0,5.47.86l.86.06c.57,0,1.15,0,1.74,0a38.81,38.81,0,0,0,4.44-.25c.29,0,.58-.07.86-.12A28.31,28.31,0,0,0,374,315.1l.81-.3a23.38,23.38,0,0,0,4.62-2.47c.24-.17.47-.33.69-.51a20.7,20.7,0,0,0,3.83-3.75c.19-.23.36-.46.52-.69a22.39,22.39,0,0,0,2.13-3.58c.12-.27.24-.53.35-.79.24-.56.44-1.1.61-1.59a4.57,4.57,0,0,1,8.63,3Z" style="fill:#fff;opacity:0.30000000000000004"></path><path d="M324.84,286.77s-5.58-3.7-6.07-3.5a46.33,46.33,0,0,0-3.86,3.47l.86,1.37-1.95,2.16.6.93L313,293.75l3.46,4.53h4.16Z" style="fill:#263238"></path><path d="M324.84,304l5.76-4.42s-4.47-12.25-5.76-12.83-9.07,6.15-9.07,7.21S321.91,302.33,324.84,304Z" style="fill:#489060"></path><path d="M394.89,307.52c-.11.26-.23.52-.37.78l-8-4.5c.12-.27.24-.53.35-.79Z" style="opacity:0.2;isolation:isolate"></path><path d="M391.51,313.12a8.19,8.19,0,0,1-.53.67l-7.08-5.72c.19-.23.36-.46.52-.69Z" style="opacity:0.2;isolation:isolate"></path><path d="M385.21,319.08l-.71.48-5.12-7.23c.24-.17.47-.33.69-.51Z" style="opacity:0.2;isolation:isolate"></path><path d="M377.63,322.84l-.82.27-2.86-8,.81-.3Z" style="opacity:0.2;isolation:isolate"></path><path d="M369.11,324.69l-.85.09-.9-8.18c.29,0,.58-.07.86-.12Z" style="opacity:0.2;isolation:isolate"></path><path d="M361.18,316.81l-.52,8.13-.86-.07.52-8.12Z" style="opacity:0.2;isolation:isolate"></path><path d="M354.85,315.89l-1.7,7.88-.84-.21,1.71-7.88C354.29,315.76,354.57,315.83,354.85,315.89Z" style="opacity:0.2;isolation:isolate"></path><path d="M348.15,313.6,345,320.82l-.76-.38,3.17-7.21Z" style="opacity:0.2;isolation:isolate"></path><path d="M341.46,309.79l-4,6.56c-.24-.16-.47-.33-.7-.5l4-6.56C341,309.46,341.22,309.63,341.46,309.79Z" style="opacity:0.2;isolation:isolate"></path><path d="M335.78,305.2l-4.95,5.63-.61-.6,4.94-5.62Z" style="opacity:0.2;isolation:isolate"></path></g></svg>