<svg width="40" height="40" viewBox="0 0 8 8" fill="none" xmlns="http://www.w3.org/2000/svg">
<path d="M2.39587 7.62712C5.27415 7.62712 6.84868 4.69201 6.84868 2.15114C6.84868 2.06901 6.84868 1.9857 6.84582 1.90356C7.15236 1.63046 7.41692 1.29234 7.62712 0.905052C7.34077 1.06043 7.03733 1.16284 6.72664 1.20895C7.05391 0.9682 7.29902 0.589405 7.41642 0.142967C7.10895 0.367148 6.77241 0.524522 6.42156 0.608197C6.18568 0.299036 5.87355 0.0942256 5.53351 0.0254912C5.19348 -0.0432432 4.84452 0.0279341 4.54068 0.227998C4.23684 0.428062 3.99509 0.745847 3.85286 1.13213C3.71064 1.51841 3.67588 1.95163 3.75397 2.36469C3.13176 2.32629 2.52306 2.12736 1.96734 1.7808C1.41162 1.43424 0.921301 0.947787 0.528178 0.352995C0.328605 0.777207 0.267699 1.279 0.357829 1.75647C0.447959 2.23394 0.682367 2.65129 1.01345 2.92378C0.765353 2.91341 0.522706 2.83142 0.305085 2.68442V2.71082C0.305513 3.15521 0.430602 3.58579 0.659209 3.92978C0.887816 4.27377 1.20592 4.51007 1.55975 4.59873C1.42544 4.64426 1.28671 4.66696 1.1474 4.66619C1.0492 4.66656 0.951188 4.65536 0.854714 4.63275C0.954718 5.0153 1.14944 5.34976 1.41161 5.58931C1.67378 5.82885 1.99027 5.96147 2.31674 5.9686C1.76213 6.5047 1.07705 6.79546 0.371822 6.79405C0.247558 6.79469 0.12338 6.78588 0 6.76765C0.715764 7.32925 1.54702 7.62744 2.39587 7.62712Z" fill="#489060"/>
</svg>
