<svg width="40" height="40" viewBox="0 0 8 8" fill="none" xmlns="http://www.w3.org/2000/svg">
<path d="M7.81347 3.83688C7.81347 1.71749 6.10595 -0.000518799 3.99991 -0.000518799C1.89292 -4.21038e-05 0.185394 1.71749 0.185394 3.83735C0.185394 5.75224 1.5802 7.33963 3.40308 7.62755V4.94615H2.43539V3.83735H3.40404V2.99122C3.40404 2.02973 3.97369 1.49869 4.84461 1.49869C5.2622 1.49869 5.69837 1.57353 5.69837 1.57353V2.51738H5.21739C4.74403 2.51738 4.59625 2.81341 4.59625 3.11707V3.83688H5.65356L5.48481 4.94567H4.59578V7.62708C6.41866 7.33915 7.81347 5.75176 7.81347 3.83688Z" fill="#489060"/>
</svg>
