<svg width="40" height="40" viewBox="0 0 8 8" fill="none" xmlns="http://www.w3.org/2000/svg">
<path d="M4.18645 0C3.15155 0 3.02141 0.00476695 2.61479 0.0228814C2.20817 0.0419492 1.93121 0.105826 1.68857 0.200212C1.43406 0.295941 1.20353 0.446104 1.0131 0.640201C0.819117 0.830734 0.668973 1.06124 0.573106 1.31568C0.478721 1.55784 0.414367 1.83528 0.395776 2.24047C0.377661 2.64804 0.372894 2.7777 0.372894 3.81404C0.372894 4.84942 0.377661 4.97908 0.395776 5.3857C0.414843 5.79184 0.478721 6.0688 0.573106 6.31144C0.670829 6.56218 0.800966 6.77479 1.0131 6.98692C1.22475 7.19905 1.43735 7.32966 1.6881 7.42691C1.93121 7.52129 2.20769 7.58565 2.61384 7.60424C3.02093 7.62235 3.1506 7.62712 4.18645 7.62712C5.22231 7.62712 5.3515 7.62235 5.75859 7.60424C6.16426 7.58517 6.44217 7.52129 6.68481 7.42691C6.93916 7.33113 7.16952 7.18097 7.35981 6.98692C7.57194 6.77479 7.70208 6.56218 7.7998 6.31144C7.89371 6.0688 7.95806 5.79184 7.97713 5.3857C7.99525 4.97908 8.00001 4.84942 8.00001 3.81356C8.00001 2.7777 7.99525 2.64804 7.97713 2.24094C7.95806 1.83528 7.89371 1.55784 7.7998 1.31568C7.70395 1.06123 7.5538 0.830725 7.35981 0.640201C7.16943 0.446032 6.93889 0.295859 6.68433 0.200212C6.44122 0.105826 6.16378 0.0414725 5.75812 0.0228814C5.35102 0.00476695 5.22184 0 4.1855 0H4.18693H4.18645ZM3.84466 0.687394H4.18693C5.20515 0.687394 5.32575 0.690731 5.72761 0.709322C6.09943 0.726006 6.30155 0.788453 6.43598 0.840413C6.61378 0.909534 6.74106 0.992479 6.87454 1.12595C7.00801 1.25943 7.09048 1.38623 7.1596 1.56451C7.21204 1.69846 7.27401 1.90058 7.29069 2.2724C7.30928 2.67426 7.3131 2.79486 7.3131 3.81261C7.3131 4.83035 7.30928 4.95143 7.29069 5.35328C7.27401 5.72511 7.21156 5.92675 7.1596 6.06118C7.09846 6.22676 7.00087 6.37648 6.87406 6.49926C6.74058 6.63273 6.61378 6.7152 6.4355 6.78432C6.30203 6.83676 6.09991 6.89873 5.72761 6.91589C5.32575 6.934 5.20515 6.93829 4.18693 6.93829C3.16871 6.93829 3.04763 6.934 2.64578 6.91589C2.27395 6.89873 2.07231 6.83676 1.93788 6.78432C1.77223 6.72327 1.62237 6.62586 1.49932 6.49926C1.3724 6.37629 1.27467 6.22643 1.21331 6.0607C1.16135 5.92675 1.0989 5.72463 1.08222 5.35281C1.0641 4.95095 1.06029 4.83035 1.06029 3.81165C1.06029 2.79343 1.0641 2.67331 1.08222 2.27145C1.09938 1.89963 1.16135 1.69751 1.21378 1.56308C1.2829 1.38528 1.36585 1.258 1.49932 1.12452C1.6328 0.991049 1.7596 0.908581 1.93788 0.83946C2.07231 0.787023 2.27395 0.725053 2.64578 0.707892C2.99758 0.691684 3.13391 0.686917 3.84466 0.686441V0.687394ZM6.22242 1.32044C6.16232 1.32044 6.10281 1.33228 6.04729 1.35528C5.99177 1.37828 5.94132 1.41199 5.89883 1.45448C5.85633 1.49698 5.82262 1.54742 5.79962 1.60295C5.77663 1.65847 5.76479 1.71798 5.76479 1.77807C5.76479 1.83817 5.77663 1.89768 5.79962 1.9532C5.82262 2.00872 5.85633 2.05917 5.89883 2.10166C5.94132 2.14416 5.99177 2.17787 6.04729 2.20086C6.10281 2.22386 6.16232 2.2357 6.22242 2.2357C6.34379 2.2357 6.46019 2.18748 6.54601 2.10166C6.63183 2.01584 6.68004 1.89944 6.68004 1.77807C6.68004 1.6567 6.63183 1.5403 6.54601 1.45448C6.46019 1.36866 6.34379 1.32044 6.22242 1.32044ZM4.18693 1.8553C3.92717 1.85124 3.66919 1.89891 3.42802 1.99551C3.18685 2.09212 2.96731 2.23573 2.78218 2.418C2.59705 2.60026 2.45003 2.81754 2.34967 3.05717C2.24932 3.2968 2.19763 3.554 2.19763 3.8138C2.19763 4.07359 2.24932 4.3308 2.34967 4.57043C2.45003 4.81006 2.59705 5.02733 2.78218 5.2096C2.96731 5.39186 3.18685 5.53548 3.42802 5.63208C3.66919 5.72869 3.92717 5.77635 4.18693 5.7723C4.70107 5.76428 5.19143 5.55441 5.55217 5.18799C5.91292 4.82157 6.11511 4.328 6.11511 3.8138C6.11511 3.2996 5.91292 2.80602 5.55217 2.43961C5.19143 2.07319 4.70107 1.86332 4.18693 1.8553ZM4.18693 2.54221C4.52411 2.54221 4.84748 2.67616 5.08591 2.91458C5.32433 3.15301 5.45828 3.47638 5.45828 3.81356C5.45828 4.15074 5.32433 4.47411 5.08591 4.71254C4.84748 4.95096 4.52411 5.0849 4.18693 5.0849C3.84975 5.0849 3.52638 4.95096 3.28795 4.71254C3.04953 4.47411 2.91559 4.15074 2.91559 3.81356C2.91559 3.47638 3.04953 3.15301 3.28795 2.91458C3.52638 2.67616 3.84975 2.54221 4.18693 2.54221Z" fill="#489060"/>
</svg>
