<svg width="25" height="25" viewBox="0 0 15 15" fill="white" xmlns="http://www.w3.org/2000/svg">
<g clip-path="url(#clip0_66_8)">
<path fill-rule="evenodd" clip-rule="evenodd" d="M9.375 11.7188C9.375 11.8431 9.32561 11.9623 9.23771 12.0502C9.1498 12.1381 9.03057 12.1875 8.90625 12.1875H1.40625C1.28193 12.1875 1.1627 12.1381 1.07479 12.0502C0.986886 11.9623 0.9375 11.8431 0.9375 11.7188V3.28125C0.9375 3.15693 0.986886 3.0377 1.07479 2.94979C1.1627 2.86189 1.28193 2.8125 1.40625 2.8125H8.90625C9.03057 2.8125 9.1498 2.86189 9.23771 2.94979C9.32561 3.0377 9.375 3.15693 9.375 3.28125V5.15625C9.375 5.28057 9.42439 5.3998 9.51229 5.48771C9.6002 5.57561 9.71943 5.625 9.84375 5.625C9.96807 5.625 10.0873 5.57561 10.1752 5.48771C10.2631 5.3998 10.3125 5.28057 10.3125 5.15625V3.28125C10.3125 2.90829 10.1643 2.5506 9.90062 2.28688C9.6369 2.02316 9.27921 1.875 8.90625 1.875H1.40625C1.03329 1.875 0.675604 2.02316 0.411881 2.28688C0.148158 2.5506 0 2.90829 0 3.28125L0 11.7188C0 12.0917 0.148158 12.4494 0.411881 12.7131C0.675604 12.9768 1.03329 13.125 1.40625 13.125H8.90625C9.27921 13.125 9.6369 12.9768 9.90062 12.7131C10.1643 12.4494 10.3125 12.0917 10.3125 11.7188V9.84375C10.3125 9.71943 10.2631 9.6002 10.1752 9.51229C10.0873 9.42439 9.96807 9.375 9.84375 9.375C9.71943 9.375 9.6002 9.42439 9.51229 9.51229C9.42439 9.6002 9.375 9.71943 9.375 9.84375V11.7188Z" fill="black"/>
<path fill-rule="evenodd" clip-rule="evenodd" d="M14.8631 7.83188C14.9068 7.78833 14.9414 7.73661 14.965 7.67966C14.9887 7.62271 15.0008 7.56166 15.0008 7.5C15.0008 7.43834 14.9887 7.37729 14.965 7.32034C14.9414 7.2634 14.9068 7.21167 14.8631 7.16813L12.0506 4.35563C11.9626 4.26761 11.8432 4.21816 11.7188 4.21816C11.5943 4.21816 11.4749 4.26761 11.3869 4.35563C11.2989 4.44364 11.2494 4.56302 11.2494 4.6875C11.2494 4.81198 11.2989 4.93136 11.3869 5.01938L13.3997 7.03125H5.15625C5.03193 7.03125 4.9127 7.08064 4.82479 7.16855C4.73689 7.25645 4.6875 7.37568 4.6875 7.5C4.6875 7.62432 4.73689 7.74355 4.82479 7.83146C4.9127 7.91937 5.03193 7.96875 5.15625 7.96875H13.3997L11.3869 9.98063C11.2989 10.0686 11.2494 10.188 11.2494 10.3125C11.2494 10.437 11.2989 10.5564 11.3869 10.6444C11.4749 10.7324 11.5943 10.7818 11.7188 10.7818C11.8432 10.7818 11.9626 10.7324 12.0506 10.6444L14.8631 7.83188Z" fill="black"/>
</g>
<defs>
<clipPath id="clip0_66_8">
<rect width="15" height="15" fill="white"/>
</clipPath>
</defs>
</svg>
