<svg width="11" height="11" viewBox="0 0 11 11" fill="none" xmlns="http://www.w3.org/2000/svg">
<path fill-rule="evenodd" clip-rule="evenodd" d="M1.29622 0.350758C1.41651 0.230639 1.56096 0.137457 1.71998 0.0773887C1.879 0.0173203 2.04898 -0.00826344 2.21864 0.00233294C2.3883 0.0129293 2.55377 0.0594638 2.70408 0.138853C2.8544 0.218242 2.98613 0.328672 3.09054 0.462826L4.32456 2.04827C4.55074 2.3391 4.63049 2.71793 4.54112 3.07545L4.16507 4.58114C4.14563 4.65913 4.14668 4.74082 4.16812 4.81828C4.18956 4.89574 4.23066 4.96634 4.28744 5.02322L5.97657 6.71249C6.03352 6.76938 6.10423 6.81056 6.18182 6.83201C6.25941 6.85345 6.34123 6.85444 6.41931 6.83487L7.9242 6.45879C8.10062 6.41468 8.28475 6.41125 8.46269 6.44877C8.64062 6.48629 8.8077 6.56377 8.95129 6.67536L10.5366 7.90879C11.1065 8.35225 11.1588 9.19448 10.6487 9.70394L9.93782 10.4148C9.42909 10.9236 8.66874 11.1471 7.95995 10.8975C6.14582 10.2591 4.49868 9.22049 3.14073 7.8586C1.77903 6.50074 0.740469 4.85372 0.102071 3.03969C-0.146797 2.33154 0.0766339 1.57044 0.585368 1.06167L1.29622 0.350758Z" fill="#489060"/>
</svg>
